<?xml version="1.0" standalone="no"?><!DOCTYPE svg PUBLIC "-//W3C//DTD SVG 1.1//EN"
        "http://www.w3.org/Graphics/SVG/1.1/DTD/svg11.dtd">
<svg xmlns:xlink="http://www.w3.org/1999/xlink" t="1654140880235" class="icon" viewBox="0 0 1024 1024" version="1.1" xmlns="http://www.w3.org/2000/svg"
     p-id="2512" width="200" height="200">
    <defs>
        <style type="text/css">@font-face { font-family: feedback-iconfont; src:
            url("//at.alicdn.com/t/font_1031158_u69w8yhxdu.woff2?t=1630033759944") format("woff2"),
            url("//at.alicdn.com/t/font_1031158_u69w8yhxdu.woff?t=1630033759944") format("woff"),
            url("//at.alicdn.com/t/font_1031158_u69w8yhxdu.ttf?t=1630033759944") format("truetype"); }
        </style>
    </defs>
    <path d="M496.917333 37.632c-38.698667-1.365333-62.997333 41.28-42.112 73.856l6.186667 9.664A376.106667 376.106667 0 0 1 517.333333 320c0 209.130667-169.536 378.666667-378.666666 378.666667-4.565333 0-9.045333-0.085333-13.482667-0.234667-38.997333-1.429333-63.296 41.792-41.834667 74.368A474.197333 474.197333 0 0 0 480 986.666667c262.144 0 474.666667-212.522667 474.666667-474.666667 0-255.850667-202.773333-465.429333-457.749334-474.368z m86.762667 116.864l-2.944-7.637333 0.768 0.213333C741.632 191.488 858.666667 338.410667 858.666667 512c0 209.130667-169.536 378.666667-378.666667 378.666667l-8.213333-0.085334a377.642667 377.642667 0 0 1-246.122667-97.984l-5.354667-4.949333 2.858667-0.469333C444.992 747.306667 613.333333 553.322667 613.333333 320c0-57.322667-10.197333-113.194667-29.653333-165.504z"
          fill="#ffffff" p-id="2513"></path>
</svg>