<?xml version="1.0" standalone="no"?><!DOCTYPE svg PUBLIC "-//W3C//DTD SVG 1.1//EN" "http://www.w3.org/Graphics/SVG/1.1/DTD/svg11.dtd"><svg t="1668167698781" class="icon" viewBox="0 0 1024 1024" version="1.1" xmlns="http://www.w3.org/2000/svg" p-id="2624" width="150" height="150"><path d="M907.9808 535.0912c0 140.032-98.8672 258.7648-235.776 300.2368-31.6416 9.5744-67.5328 57.2416-100.7104 83.1488-3.7888 2.9696-9.1648 2.8672-12.7488-0.3072-27.648-24.3712-60.7232-71.936-88.7808-79.36-143.2064-37.9392-248.0128-159.5392-248.0128-303.7184 0-174.4896 153.6-315.9552 343.04-315.9552s342.9888 141.4144 342.9888 315.9552z" fill="#56E5BE" p-id="2625"></path><path d="M906.3424 565.76c-15.9744-152.4224-146.176-271.2576-304.4864-271.2576-169.0624 0-306.176 135.6288-306.176 302.8992 0 75.52 28.0064 144.5888 74.1888 197.632 30.208 19.2512 63.8976 34.2016 100.096 43.776 28.0064 7.424 61.1328 54.9888 88.7808 79.36 3.584 3.1744 8.96 3.2768 12.7488 0.3072 33.1776-25.9584 69.0688-73.5744 100.7104-83.1488 126.8224-38.4512 220.8768-143.104 234.1376-269.568z" fill="#50DDB8" p-id="2626"></path><path d="M901.376 596.8896c-26.7776-131.9936-135.0656-230.8096-264.704-230.8096-149.76 0-271.1552 131.7376-271.1552 294.2976 0 56.832 14.8992 109.824 40.6016 154.8288 20.1728 9.728 41.5232 17.664 63.7952 23.552 28.0064 7.424 61.1328 54.9888 88.7808 79.36 3.584 3.1744 8.96 3.2768 12.7488 0.3072 33.1776-25.9584 69.0688-73.5744 100.7104-83.1488 116.2752-35.1744 205.056-126.0544 229.2224-238.3872z" fill="#42D3AD" p-id="2627"></path><path d="M521.2672 922.112c-6.6048 0-13.1584-2.0992-18.688-6.2976-14.2848-10.9056-28.2624-26.1632-43.0592-42.2912-15.7184-17.152-39.5264-43.0592-51.6096-46.2848-175.5648-46.5408-298.1888-197.376-298.1888-366.848 0-210.3808 184.6272-381.5424 411.5456-381.5424s411.5456 171.1616 411.5456 381.5424c0 165.5808-113.9712 311.3472-283.5968 362.752-15.2064 4.608-38.2464 27.392-58.5728 47.4624-16.7936 16.5888-34.1504 33.7408-51.8144 46.0288a30.56128 30.56128 0 0 1-17.5616 5.4784z m0-781.7728c-193.0752 0-350.1056 143.616-350.1056 320.1024 0 141.6704 103.8336 268.0832 252.5184 307.5072 29.44 7.8336 55.7568 36.4032 81.152 64.1024 5.9392 6.4512 11.9296 13.0048 17.664 18.8928 8.192-7.424 16.64-15.7696 24.9856-24.0128 26.624-26.3168 54.1696-53.504 83.968-62.5152 143.5136-43.4688 239.9744-165.632 239.9744-303.9232-0.0512-176.5888-157.0816-320.1536-350.1568-320.1536z" fill="#2E3138" p-id="2628"></path><path d="M397.7728 438.1184m-48.0256 0a48.0256 48.0256 0 1 0 96.0512 0 48.0256 48.0256 0 1 0-96.0512 0Z" fill="#2E3138" p-id="2629"></path><path d="M640.9216 438.1184m-48.0256 0a48.0256 48.0256 0 1 0 96.0512 0 48.0256 48.0256 0 1 0-96.0512 0Z" fill="#2E3138" p-id="2630"></path></svg>