<svg t="1658756706596" class="icon" viewBox="0 0 1024 1024" version="1.1" xmlns="http://www.w3.org/2000/svg" p-id="1497"
     width="200" height="200">
    <path d="M510 192a32 32 0 0 1-32-32V80a32 32 0 1 1 64 0v80a32 32 0 0 1-32 32z m224.864 93.136a32 32 0 0 1 0-45.248l56.576-56.576a32 32 0 1 1 45.248 45.248l-56.56 56.56a32 32 0 0 1-45.264 0.016z m93.136 224.864a32 32 0 0 1 32-32h80a32 32 0 1 1 0 64h-80a32 32 0 0 1-32-32z m-93.136 224.864a32 32 0 0 1 45.248 0l56.56 56.56a32 32 0 1 1-45.248 45.248l-56.576-56.56a32 32 0 0 1 0.016-45.248zM510 828a32 32 0 0 1 32 32v80a32 32 0 1 1-64 0v-80a32 32 0 0 1 32-32z m-224.864-93.136a32 32 0 0 1 0 45.248l-56.56 56.56a32 32 0 0 1-45.248-45.248l56.576-56.56a32 32 0 0 1 45.232 0zM192 510a32 32 0 0 1-32 32H80a32 32 0 1 1 0-64h80a32 32 0 0 1 32 32z m93.136-224.864a32 32 0 0 1-45.248 0l-56.576-56.56a32 32 0 0 1 45.248-45.248l56.56 56.576a32 32 0 0 1 0.016 45.232zM510 272c132.544 0 240 107.456 240 240 0 132.544-107.456 240-240 240-132.544 0-240-107.456-240-240 0-132.544 107.456-240 240-240z m0 64c-97.2 0-176 78.8-176 176s78.8 176 176 176 176-78.8 176-176-78.8-176-176-176z"
          fill="#ffffff" p-id="1498"></path>
</svg>