<?xml version="1.0" standalone="no"?><!DOCTYPE svg PUBLIC "-//W3C//DTD SVG 1.1//EN" "http://www.w3.org/Graphics/SVG/1.1/DTD/svg11.dtd"><svg t="1654150980586" class="icon" viewBox="0 0 1024 1024" version="1.1" xmlns="http://www.w3.org/2000/svg" p-id="3145" xmlns:xlink="http://www.w3.org/1999/xlink" width="200" height="200"><defs><style type="text/css">@font-face { font-family: feedback-iconfont; src: url("//at.alicdn.com/t/font_1031158_u69w8yhxdu.woff2?t=1630033759944") format("woff2"), url("//at.alicdn.com/t/font_1031158_u69w8yhxdu.woff?t=1630033759944") format("woff"), url("//at.alicdn.com/t/font_1031158_u69w8yhxdu.ttf?t=1630033759944") format("truetype"); }
</style></defs><path d="M861.752 457.565l-44.148-104.812 14.585-27.323-51.081-98.466 5.688-37.842c-3.209-6.8-10.086-20.247-19.14-33.739C753.918 134.915 740.151 123 730.829 123H332v486.817l54.93 19.791 2.316 8.69c27.044 98.775 28.039 242.244 27.855 277.638 5.044 3.828 14.3 9.102 27.107 9.102 20.561 0 44.274-13.776 68.593-39.84 58.109-62.276 67.667-171.04 69.806-247.433l0.443-15.901 295.383-19.321c7.77 0 15.146-5.177 17.014-10.054L849.704 479.08l12.048-21.515z" fill="#FFC0C0" p-id="3146"></path><path d="M888.449 481.54l12.167-21.802-44.337-105.212 15.397-28.864-54.329-104.718 5.51-36.677-1.965-4.571c-0.384-0.894-9.569-22.365-23.931-43.868C775.422 103.579 753.171 87 730.829 87H325.693c-8.316-15-24.433-24-42.914-24H143.91C116.941 63 95 84.066 95 109.961v511.447C95 647.724 116.941 669 143.91 669h138.869c18.368 0 34.395-9.869 42.755-24.517l32.218 11.654c26.652 106.358 24.33 265.434 24.302 267.072l-0.11 6.581 4.249 5.018c0.871 1.028 21.741 25.162 57.995 25.162 30.93 0 62.606-17.138 94.146-50.941 62.015-66.463 75.323-173.633 78.644-254.38l262.086-17.176c12.259-0.154 24.859-4.769 34.522-12.714C924.601 615.704 931 603.115 931 590.22v-3.39l-42.551-105.29z m-10.017 121.002l-295.384 19.321-0.445 15.901c-2.139 76.393-11.702 185.157-69.811 247.433-24.319 26.064-48.042 39.84-68.603 39.84-12.807 0-22.082-5.274-27.126-9.102 0.184-35.394-0.85-178.863-27.894-277.638l-2.239-8.69-54.93-19.79V123h398.829c9.322 0 23.089 11.915 36.826 32.384 9.055 13.492 15.932 27.091 19.14 33.891l-5.688 37.765 51.081 98.427-14.585 27.304 44.148 104.803-12.048 21.51 45.743 113.405c-1.867 4.878-9.244 10.053-17.014 10.053zM296 621.408c0 6.933-5.646 12.592-13.221 12.592H143.91c-7.575 0-13.91-5.659-13.91-12.592V109.961C130 103.33 136.205 98 143.91 98h138.869c7.705 0 13.221 5.33 13.221 11.961v511.447z" fill="" p-id="3147"></path><path d="M296 109.961C296 103.33 290.484 98 282.779 98H143.91c-7.705 0-13.91 5.33-13.91 11.961v511.447c0 6.933 6.335 12.592 13.91 12.592h138.869c7.575 0 13.221-5.659 13.221-12.592V109.961z" fill="#53AFFD" p-id="3148"></path></svg>