<svg xml:space="preserve" style="enable-background:new 0 0 2117.74 1459.28;" viewBox="0 0 2117.74 1459.28" y="0px"
     x="0px" xmlns:xlink="http://www.w3.org/1999/xlink" xmlns="http://www.w3.org/2000/svg" id="레이어_1" version="1.1">
<style type="text/css">
	.st0{fill:transparent;}
	.st1{fill:transparent;}
	.st2{fill:#61AFA0;}
	.st3{fill:none;stroke:#368778;stroke-width:3;stroke-linecap:round;stroke-linejoin:round;stroke-miterlimit:10;}
	.st4{fill:#FFFFFF;stroke:#000000;stroke-width:1.5;stroke-linecap:round;stroke-linejoin:round;stroke-miterlimit:10;}
	.st5{fill:none;stroke:#000000;stroke-width:1.5;stroke-linecap:round;stroke-linejoin:round;stroke-miterlimit:10;}
	.st6{fill:transparent;stroke:#000000;stroke-width:1.5;stroke-linecap:round;stroke-linejoin:round;stroke-miterlimit:10;}
	.st7{fill:none;stroke:#000000;stroke-width:0.75;stroke-linecap:round;stroke-linejoin:round;stroke-miterlimit:10;}
	.st8{fill:#D24F5A;stroke:#000000;stroke-width:1.5;stroke-linecap:round;stroke-linejoin:round;stroke-miterlimit:10;}
	.st9{fill:#FFFFFF;}
	.st10{fill:#F3B4B4;}
	.st11{fill:#ECADAD;}
	.st12{fill:#D24F5A;}
	.st13{clip-path:url(#SVGID_4_);}
	.st14{fill:#FFFFFF;stroke:#000000;stroke-width:0.25;stroke-linecap:round;stroke-linejoin:round;stroke-miterlimit:10;}
	.st15{fill:#1B2947;stroke:#000000;stroke-width:0.25;stroke-linecap:round;stroke-linejoin:round;stroke-miterlimit:10;}
	.st16{fill:none;stroke:#000000;stroke-width:0.25;stroke-linecap:round;stroke-linejoin:round;stroke-miterlimit:10;}
	.st17{clip-path:url(#SVGID_8_);}
	.st18{fill:#D24F5A;stroke:#000000;stroke-width:0.25;stroke-linecap:round;stroke-linejoin:round;stroke-miterlimit:10;}
	.st19{clip-path:url(#SVGID_10_);}
	.st20{clip-path:url(#SVGID_12_);}
</style>
    <rect height="1472.23" width="2117.74" class="st0"></rect>
    <g>
	<g>
		<rect height="115.32" width="25.9" class="st1" y="1309.95" x="408.26"></rect>
        <rect height="115.32" width="25.9" class="st1" y="1309.95" x="765.22"></rect>
        <path d="M599.75,1309.95h194.19c6.24,0,11.11-6.13,11.11-13.56v-44.44c-2.41-37.89-28.64-72.87-28.64-72.87H599.75
			h-0.05H423.02c0,0-26.05,35-28.46,72.87l-0.17,44.44c0,7.44,4.86,13.56,11.11,13.56H599.7H599.75z"
              class="st2"></path>
        <path d="M776.41,1179.06V850.86c0-13.08-8.77-23.69-19.57-23.69H599.73h-0.05H442.58
			c-10.81,0-19.57,10.61-19.57,23.69v328.21" class="st1"></path>
	</g>
        <line y2="1244.64" x2="797.83" y1="1244.64" x1="401.29" class="st3"></line>
</g>
    <g>
	<g>
		<rect height="115.32" width="25.9" class="st1" y="1309.95" x="841.99"></rect>
        <rect height="115.32" width="25.9" class="st1" y="1309.95" x="1198.97"></rect>
        <path d="M1033.48,1309.95h194.19c6.24,0,11.11-6.13,11.11-13.56v-44.44c-2.41-37.89-28.64-72.87-28.64-72.87h-176.66
			h-0.05H856.75c0,0-26.05,35-28.46,72.87l-0.17,44.44c0,7.44,4.86,13.56,11.11,13.56h194.19H1033.48z"
              class="st2"></path>
        <path d="M1210.16,1179.06V850.86c0-13.08-8.77-23.69-19.57-23.69h-157.11h-0.05H876.32
			c-10.81,0-19.57,10.61-19.57,23.69v328.21" class="st1"></path>
	</g>
        <line y2="1244.64" x2="1231.56" y1="1244.64" x1="835.02" class="st3"></line>
</g>
    <g>
	<g>
		<rect height="115.32" width="25.9" class="st1" y="1309.95" x="1275.72"></rect>
        <rect height="115.32" width="25.9" class="st1" y="1309.95" x="1632.7"></rect>
        <path d="M1467.21,1309.95h194.19c6.24,0,11.11-6.13,11.11-13.56v-44.44c-2.41-37.89-28.64-72.87-28.64-72.87h-176.66
			h-0.05h-176.68c0,0-26.05,35-28.46,72.87l-0.17,44.44c0,7.44,4.86,13.56,11.11,13.56h194.19H1467.21z"
              class="st2"></path>
        <path d="M1643.89,1179.06V850.86c0-13.08-8.77-23.69-19.57-23.69h-157.11h-0.05h-157.11
			c-10.81,0-19.57,10.61-19.57,23.69v328.21" class="st1"></path>
	</g>
        <line y2="1244.64" x2="1665.29" y1="1244.64" x1="1268.75" class="st3"></line>
</g>
    <g>
	<g>
		<rect height="115.32" width="25.9" class="st1" y="1309.95" x="1709.45"></rect>
        <rect height="115.32" width="25.9" class="st1" y="1309.95" x="2066.43"></rect>
        <path d="M1900.94,1309.95h194.19c6.24,0,11.11-6.13,11.11-13.56v-44.44c-2.41-37.89-28.64-72.87-28.64-72.87h-176.66
			h-0.05h-176.68c0,0-26.05,35-28.46,72.87l-0.17,44.44c0,7.44,4.86,13.56,11.11,13.56h194.19H1900.94z"
              class="st2"></path>
        <path d="M2077.62,1179.06V850.86c0-13.08-8.77-23.69-19.57-23.69h-157.11h-0.05h-157.11
			c-10.81,0-19.57,10.61-19.57,23.69v328.21" class="st1"></path>
	</g>
        <line y2="1244.64" x2="2099.03" y1="1244.64" x1="1702.49" class="st3"></line>
</g>
    <path d="M2041.31,775.95c-1.11-2.89-31.53-8.6-36.03-10.33c-12.78-4.91-26.13-11.62-34.7-22.7
	c-8.5-10.99-11.07-46.65-11.07-46.65c-2.86-11.84-60.38,2.06-75.64,10.74c1.51-0.8,8.02,37.14,1.38,46.52
	c-9.41,13.28-75.31,32.32-75.31,32.32l23.03,133.23l230.4-85.95C2063.35,833.14,2041.34,776.01,2041.31,775.95z"
          class="st4"></path>
    <path d="M1887.24,748.49c5.71,13.61,16.6,23.72,30.53,36.09c20.09-6.41,42.34-27.89,51.95-44.28
	c8.77,10.24,42.6,24.62,57.56,28.77l-1.11,332.39l-206.35,0.76c-0.65-2.17-2.74-4.37-2.84-6.64V802.56
	C1841.83,802.56,1869.69,765.84,1887.24,748.49z" class="st4"></path>
    <path d="M1875,789.33c3.7,5.96,10.21,23.64,16.95,26.66c4.75-10.82,15.19-24.49,24.9-30.58
	c8.68,9.45,17.43,24.21,24.36,35.15c5.79-2.31,40.13-42.05,40.13-42.05" class="st5"></path>
    <path d="M1916.58,788.45c-2.97,24.7-5.96,49.34-7.75,74.16" class="st5"></path>
    <path d="M1853.47,574.28c-23.57,23.69-22.06,61.88-16.3,94.08c3.54,19.72-0.66,41.07-8.1,59.73
	c8.37-6.34,16.39-18.74,16.29-30.43c1.33,12.19-4.95,28.54-9.43,39.33c10.34-0.23,17.6,0.1,27.81,0c6.01-0.07,21.42,2.06,24.32-4.27"
          class="st6"></path>
    <path d="M2048.3,883.08c-0.63,41.02-3.32,82-3.32,122.95c0,14.13,0.33,28.17-1.34,42.02
	c-3.84,31.54-34.43,38.37-60.93,51.13c-13.61,6.56-42.92,24.04-56.4,14.38c-16.09-11.54-5.05-54.69-1.98-69.98
	c4.42-21.91,11.64-41.7,19.39-62.57c6.21-16.72,8.23-33.1,17.58-48.64c9.75-16.19,20.92-29.58,32.39-44.41
	c10.44-13.5,21.75-35.1,42.55-31.49C2055.54,859.84,2054.74,876.16,2048.3,883.08z" class="st6"></path>
    <g>
	<path d="M1925.56,1423.2c5.45-24.42,10.87-48.98,16.55-73.91c3.57-15.66,34.27-49.84,28.39-60.85
		c36.74-22.15,79.77-18.41,92.22-67.5c7.85-30.96,4.75-76.83-4.08-107.32c-20.47,4.2-41.92,5.36-62.56,7.34
		c-34.71,3.34-71.31,0.13-106.39-1.49c-31.79-1.48-73.02,7.85-104.31,0.03c-17.73,18.83-27.08,76.9-39.89,105.9
		c-7.44,16.83-10.31,31.83-7.11,50.19c6.46,37.06,15.85,92.04,24.9,147.61" class="st4"></path>
        <path d="M1914.67,1175.31c-40.59,29.85-67.44,47.93-74.56,95.41c-1.83,12.17-5.18,82.05-7.92,152.47"
              class="st4"></path>
        <path d="M1971.6,1291.74c-0.68-12.85-26.96-28.67-36.36-34.15" class="st5"></path>
        <path d="M1970.5,1288.44c1.41-11.22-5.64-20.06-13.22-27.54" class="st7"></path>
        <path d="M1885.65,1195.88c-4.05-24.65-4.96-55.3,2.21-79.32" class="st7"></path>
        <path d="M1879.04,1184.86c-10.38-17.23-23.49-32.39-40.77-42.97" class="st7"></path>
        <path d="M1869.13,1183.76c-5.71-10.74-23.33-18.36-34.15-23.14" class="st7"></path>
</g>
    <path d="M1568.45,751.03c0,0-27.59-26.99-38.32-29.17s-20.32-10.44-27.03-19.76c-3.47-4.81-5.55-10.64-7.02-16.55
	c-1.79-7.21-2.72-14.64-2.79-22.1h-60.6c-0.07,7.45-1,14.89-2.79,22.1c-1.46,5.89-3.55,11.74-7.02,16.55
	c-6.72,9.31-20.77,20.54-31.49,22.71c-10.72,2.17-36.11,19.51-36.11,19.51l2.26,67.94h210.9v-61.23H1568.45z"
          class="st4"></path>
    <path d="M1510.24,707.26c-5.13,13.23-30.85,51.08-45.77,62.03c-15.74-13.78-45.09-38.37-46.52-62.03l-48.08,51.08
	v307.37h182.03V737.86L1510.24,707.26z" class="st4"></path>
    <path d="M1409.23,768.76c0,0,12.3,21.53,18.76,31.28c12.88-13.27,22.03-19.89,36.49-30.75
	c17.07,4.5,26.12,18.23,39.1,28.67c5.68-12,12.32-26.9,16.15-39.61" class="st5"></path>
    <path d="M1506.67,1086.57c-12.42,25.2-35.69,43.88-35.69,43.88c-13.07-8.45-27.34-27.28-36.81-40.29
	c-1-21.78,2.51-32.17,3.49-53.97c0.75-16.45,1.34-32.96,2.01-49.39c1.63-39.86,5.66-79.56,8.93-118.97
	c2.76-33.2,5.36-55.2,9.61-65.4c4.03-9.66,13.08-18.53,18.25-5.08c0,0,6.96,91.16,8.14,113.56c2.26,42.9,10.97,84.84,14.81,127.37
	C1501.36,1059.66,1504.15,1065.34,1506.67,1086.57z" class="st8"></path>
    <path d="M1464.47,769.27c13.17,3.98,21.91,12.85,21.91,12.85s-4.48,12.82-9.06,20.29c-7.04-2.46-12.22-2.46-19.09,0
	c-4.76-5.13-11.8-19.31-11.8-19.31L1464.47,769.27z" class="st8"></path>
    <path d="M1470.99,1245.11c7.04,5.2,7.64,9.88,14.89,14.79c7.02,4.75,8.3,8.38,11.87,15.71
	c3.09,6.31,9.23,10.99,11.56,17.58c2.42,6.86,3.09,12.24,5.1,19.94c4.65,17.85,11.95,60.27,18.69,105.09l95.35,4.98
	c-2.51-58.06-4.3-116.83-5.84-130.59c-1.49-13.46-7.04-22.76-6.23-36.56c0.75-12.75,8-30.1,8.63-43.22
	c0.78-15.87,0.98-32.97-4.17-47.95c-16.37-95.64-241.31-60.37-276.69-53.16c-43.2,8.78-49.62,72.67-49.06,109.46
	c15.57,18.51,42.07,30.35,61.36,44.26c-1.48,11.97-4.86,85.85-9.16,153.22h88.8c16.24-79.21,35.68-171.02,35.68-186.04
	c0-11.82-2.14-27.73-7.04-38.5" class="st6"></path>
    <path d="M1337.3,1136.73c-22.4,8.55-28.07,23.71-29.19,45.87c-0.95,18.86-3.14,36.81-3.12,55.25
	c-13.02-8.4-13.9-12.55-14.61-28.17c-0.56-12.42,0.55-24.89,1.08-37.07c1.33-30.51-0.15-60.43,2.31-91.03
	C1301.83,1100.32,1326.59,1119.58,1337.3,1136.73z" class="st6"></path>
    <path d="M1355.41,1280.02c-1.63-17.63,8.65-34.08,1.05-52.11" class="st5"></path>
    <path d="M1590.59,1136.73c13.03,13.22,17.13,31.13,23.54,52.38c5.93,19.66,8.77,48.73,8.77,48.73
	c13.02-8.4,13.9-12.55,14.61-28.17c0.56-12.42-0.55-24.89-1.08-37.07c-1.33-30.51,0.15-60.43-2.31-91.03
	C1626.06,1100.32,1601.3,1119.58,1590.59,1136.73z" class="st6"></path>
    <path d="M1497.76,1275.59c-14.88-23.14-10.06-56.75,2.16-81.5" class="st5"></path>
    <path d="M1620.08,1280.02c-5.98-15.12-8.78-22.88-14.63-38.05" class="st5"></path>
    <path d="M1357.24,1256.05c-2.27-10.13-3.52-21.75-10.94-29.7" class="st5"></path>
    <path d="M1140.68,774.44c0,0-26.16-16.29-36.89-18.46c-10.72-2.17-21.75-6.54-28.46-15.85
	c-3.47-4.81-5.55-10.64-7.02-16.55c-1.79-7.21-2.72-14.64-2.79-22.1h-60.6c-0.07,7.45-1,14.89-2.79,22.1
	c-1.46,5.89-3.55,11.74-7.02,16.55c-6.72,9.31-17.75,13.68-28.46,15.85c-10.72,2.17-36.89,18.46-36.89,18.46v75.84h210.9v-75.84
	H1140.68z" class="st4"></path>
    <path d="M1147.35,982.69V779.6c-54.26,32.09-152.82,28.61-207.53,3.32l-3.32,182.89L1147.35,982.69z"
          class="st6"></path>
    <path d="M897.06,1191.7c-3.92,27.09,9.05,41.72,19.32,66.87c10.04,24.55,61.01,155.08,84.62,193.96l34.67,4.42
	c5.83-4.42-21.22-123.37-28.62-146.45c-7.12-22.25-14.46-69.1-14.46-69.1c0.53-13.63-1.39-19.62,4.22-31.18
	c4.37-9.02,18.49-21.45,20.24-29.78c3.1-14.86-16.37-38.09-28.46-42.7c-15.71-5.99-35.23-2.52-50.95,2.42
	C921.3,1145.29,899.92,1171.99,897.06,1191.7z" class="st4"></path>
    <path d="M1147.44,1220.95c-9.86,6.66-19.91,13.48-31.15,17.5c-11.09,3.97-40.92,11.39-40.92,11.39
	c8.92,14.96,14.33,37.47,18.4,54.84c6.36,27.11,10.97,93.83,20.5,140.25c-23.59,7.94-16.15,8.52-40.89,6.81
	c-13.05-39.88-29.3-71.87-46.05-110.35c-15.19-34.9-34.03-72.4-45.46-108.76c-3.05-9.71-5.58-21.53-4.62-31.46
	c2.66-27.26,50.7-62.32,50.7-62.32" class="st4"></path>
    <path d="M1081.21,1260.88c-4.05-9-9.76-16.64-14.28-25.32" class="st5"></path>
    <path d="M1166.91,1105.05c7.02,31.18,15.84,75.04,0.73,104.88c-10.44,20.6-36.62,32.89-64.95,36.19
	c28.16-35.08-11.39-41.11-53.29-50.98c-45.04-10.64-77.6-11.54-127.01-7.12c-32.76,2.94-24.82,21.83-18.89,42.8
	c-8.92-9.06-16.09-20.42-14.15-31.79c1.01-5.93,4.42-17.52,6.99-23.06c7.09-15.34,14.39-41.22,22.65-56.03
	c7.47-13.43,12.27-103.41,12.27-143.44c24.9,2.82,51.88,1.91,77.03,1.94c17.15,0.02,33.95-2.26,51.07-2.94
	c21.37-0.86,41.62,2.71,62.77,2.94c-2.21,23.62,12.34,50.94,19.84,72.65C1148.15,1069.01,1162.74,1086.54,1166.91,1105.05z"
          class="st6"></path>
    <path d="M719.85,720.66c-1.11-2.89-31.53-8.6-36.03-10.33c-12.78-4.91-26.13-11.62-34.7-22.7
	c-8.5-10.99-11.07-46.65-11.07-46.65c-2.86-11.84-60.38,2.06-75.64,10.74c1.51-0.8,8.02,37.14,1.38,46.52
	c-9.41,13.28-85.43,33.12-85.43,33.12l33.14,132.43l230.4-85.95C741.9,777.86,719.88,720.73,719.85,720.66z"
          class="st4"></path>
    <path d="M679.17,703.78c-13.05-6.09-26-15.52-34.58-27.04c-10.08,22.33-26.95,40.38-48.98,52.5
	c-13.07-11.77-26.63-25.14-31-42.62c-7.3,5.2-14.41,13.17-22.7,16.6c-5.76,22.45,1.74,49.03,4.98,71.39
	c6.04,41.8-14.34,85.92-24.65,126.79c-10.49,41.6-16.98,83.97-21.23,126.26c-2.09,20.89-2.97,42.42-1.15,63.5
	c15.29,15.41,27.53,24.57,50.24,25.48c11.87,0.46,23.59-0.22,35.36,0.95c21.82,2.16,43.93,3.97,65.71,0.93
	c9.81-1.36,23.01-2.56,31.38-8.47c14.43-10.19,13.13-34.12,14.58-49.87c3.55-38.65,9.94-75.59,8.65-114.5
	c-0.81-24.36,5.84-48.3,3.8-72.65c-1.23-14.49-4.9-28.52-3.24-43.08c2.96-26.03-2.47-47.95-6.26-73.61
	C697.8,741.02,695.13,711.23,679.17,703.78z" class="st4"></path>
    <path d="M541.79,722.74c9.68,16.3,14.33,35.3,26.78,49.91c5.79-12.27,16-35.1,27.74-42.95
	c12.22,15.02,23.06,31.83,37.59,44.74c12-16.69,25.3-34.91,34-53.69" class="st5"></path>
    <path d="M638.27,1060.81c-12.42,25.2-35.69,43.88-35.69,43.88c-13.07-8.45-27.34-27.28-36.81-40.29
	c-1-21.78,2.51-32.17,3.49-53.97c0.75-16.45,1.34-32.96,2.01-49.39c1.63-39.86,7.6-79.44,8.93-118.97
	c0.9-26.68,6.49-65.48,10.74-75.66c4.03-9.66,11.95-8.27,17.12,5.18c0,0,6.96,91.16,8.14,113.56c2.26,42.9,10.97,84.84,14.81,127.37
	C632.95,1033.88,635.74,1039.56,638.27,1060.81z" class="st8"></path>
    <path d="M615.24,754.1c-1.05,4.98-3.04,13.55-5.11,18.03c-6.28-1.66-15.74-5.01-22.26-2.17
	c-5.76-6.04-4.73-14.23-6.64-22.16c0,0,8.5-14.38,15.09-18.11L615.24,754.1z" class="st8"></path>
    <path d="M434.86,1170.69c-15.99,32.71-43.28,56.13-37.09,94.78c6.24,38.93,17.9,77.75,27.44,116.18
	c6.03,24.24,14.49,49.37,17.65,74.73c29.05,3.97,53.49,1.2,82.76,1.33c-6.03-12.62-3.98-31.38-5.33-45.32
	c-1.18-12.15-3.47-24.74-4.02-36.91c-1.33-29.8-1.59-58.97-2.66-88.66c26.7-5.53,56.28-21.57,84.11-24.02
	c13.33-1.18,26.26,0.61,38.65,3.67c19.37,4.8,41.79,5.83,60.15,13.68c1.28,17.56-3.7,41.19-5.3,58.7
	c-3.19,35.23-8.8,72.1-16.07,106.82c1.33,0-1.33,1.33,0,1.33h86.78c14.01-27.94,18.89-57.04,28.41-86.51
	c8.92-27.64,17.08-56.71,19.96-85.73c2.61-26.4,0.4-56.43-12.3-80.07c-4.45-8.28-10.59-25.37-15.02-34.38
	c-14.69-29.88-34.15-48.2-62.41-65.73c-32.74,4.96-69.35,5.35-102.8,5.35c-19.84,0-39.36-0.75-59.07-1.33
	c-26.55-0.8-79.76-6.67-79.76-6.67L434.86,1170.69z" class="st6"></path>
    <path d="M720.53,1118.61c-32.74,4.96-69.35,5.35-102.8,5.35c-19.84,0-39.36-0.75-59.07-1.33
	c-26.55-0.8-79.76-6.67-79.76-6.67" class="st7"></path>
    <path d="M513.62,1300.19c0-9.48,0.96-19.61,0.05-29.04c-1.53-15.81-9.66-30.7-14.06-46.05" class="st5"></path>
    <path d="M695.84,1290.18c2.24-8.28,1.51-18.94,2.01-27.41c0.83-14.16,4.96-27.73,5.99-41.67" class="st5"></path>
    <path d="M608.73,1254.14c0.48-29.98-2.01-60.51-2.01-90.7c0-19.32-2.32-40.66,2.01-59.5" class="st7"></path>
    <path d="M780.45,1188.11c17.52,6.62,25.25,25.68,25.25,25.68c5.55-14.18,3.19-33.59,0.02-42.3
	c-9.73-26.68-34.4-79.44-53.89-117.81c-32.04,17.42-74.71,62.62-72.55,78.73C683.42,1163.21,760.29,1180.49,780.45,1188.11z"
          class="st6"></path>
    <path d="M421.51,1132.99c0,15.71-20.49,51.95-30.86,69.58c-5.48,9.3-5.03,49.24-2.01,60.07
	c25.38-46.09,50.06-62.39,63.42-116.26c4.38-17.7,8.62-37.09,12.07-54.36C453.87,1109.1,435.42,1118.95,421.51,1132.99z"
          class="st6"></path>
    <path d="M542.27,525.39c-7.19,6.62-12.98,14.74-16.54,24.01c-6.82,17.81-5.58,37.44-4.22,56.3
	c1.36,18.81,3.45,39.33,16.52,52.36c10.86,10.82,27.43,14.01,42.72,12.05c48.64-6.24,81.43-50.57,78.73-98.37
	c-1.78-31.36-28.04-58.47-58.19-64.2C580.61,503.59,558.05,510.86,542.27,525.39z" class="st9"></path>
    <path d="M542.92,573.83c-9.21-9.18-21.62,0.2-21.62,0.2" class="st5"></path>
    <path d="M570.45,575.41c15.69-11.75,34.2,3.27,34.2,3.27" class="st5"></path>
    <path d="M538.6,589.61c-0.38,3.54-2.49,6.21-4.7,5.98c-2.21-0.23-3.69-3.3-3.3-6.84c0.38-3.54,2.49-6.21,4.7-5.98
	C537.51,583,538.99,586.07,538.6,589.61z"></path>
    <path d="M586.47,592.25c-0.38,3.54-2.49,6.21-4.7,5.98c-2.21-0.23-3.69-3.3-3.3-6.84c0.38-3.54,2.49-6.21,4.7-5.98
	C585.37,585.64,586.85,588.71,586.47,592.25z"></path>
    <path d="M545.63,577.8c3.09,6.81,0.73,16.35,0.05,23.49c-0.42,4.35-2.16,9.73,2.62,12.29" class="st5"></path>
    <ellipse ry="14.11" rx="14.11" cy="616.06" cx="595.38" class="st10"></ellipse>
    <path d="M556.35,645.74c9.56-2.44,13.4-15.12,15.61-23.19c-11.42,2.44-25.07,2.92-36.34-0.07c0,0,2.46,11.26,5.63,16.39
	C544.33,643.84,550.09,647.33,556.35,645.74z" class="st4"></path>
    <path d="M658.06,591.9c3.62-9.21,8.25-19.01,10.44-28.8" class="st7"></path>
    <path d="M656.61,599.88c2.84-3.87,7.06-7.24,8.58-11.9" class="st7"></path>
    <g>
	<path d="M523.05,621.53c3.02-0.51,5.84-2.21,7.62-5c3.37-5.28,1.81-12.29-3.47-15.64c-1.91-1.21-4.03-1.78-6.14-1.76
		c0.15,2.19,0.3,4.38,0.45,6.57C521.9,610.91,522.33,616.25,523.05,621.53z" class="st10"></path>
</g>
    <path d="M659.5,571.74c-1.78-31.36-28.04-58.47-58.19-64.2c-20.7-3.93-43.26,3.34-59.04,17.85
	c-7.19,6.62-12.98,14.74-16.54,24.01c-6.82,17.81-5.58,37.44-4.22,56.3c1.36,18.81,3.45,39.33,16.52,52.36
	c10.86,10.82,27.43,14.01,42.72,12.05c3.88-0.5,7.65-1.25,11.32-2.21" class="st5"></path>
    <path d="M652.44,521.16c-8.93-21.38-32.08-41.24-83.72-27.06c-12.17,3.34-24.04,7.54-35.64,12.12
	c-6.28,2.47-10.74,3.7-16.07-0.66c-2.36,4.78-0.56,15.47,3.25,19.29c-2.49,0.15-4.17,0.76-5.98-0.73
	c-5.06,21.68,42.77,10.64,53.74,9.6c8.98-0.86,39.4-6.14,44.41,3.62c23.34-9.05,24.52,42.45,23.08,49.29
	c4.6,5.94,7.35,16.27,7.42,24.02c0.07,7.82-7.7,21.75-4.15,29.6c0,0,12-7.49,26.73-28.17c6.76-9.51,17.18-27.64,17.1-39.18
	C682.49,551.79,676.14,528.16,652.44,521.16z" class="st6"></path>
    <g>
	<path d="M639.86,619.79c11.75-2.74,22.2-18.93,17.5-31.06c-4.2-10.87-19.61-9.46-23.48,0.88" class="st4"></path>
        <path d="M638.08,603.14c-1.64-6.89,8.2-10.54,13.2-7.11" class="st5"></path>
        <path d="M637.98,602.27c1.69-4.05,7.42-0.85,8.72,1.93" class="st5"></path>
</g>
    <g>
	<path d="M1088.56,671.7c10.56,1.21,24.02-9.11,23.74-20.57c-0.25-10.28-13.45-13.66-19.74-6.23" class="st4"></path>
        <path d="M1092.05,657.36c0.68-6.21,9.93-6.31,13.07-1.98" class="st5"></path>
        <path d="M1092.22,656.63c2.61-2.86,6.41,1.49,6.66,4.18" class="st5"></path>
</g>
    <g>
	<path d="M981.46,671.7c-10.56,1.21-24.02-9.11-23.74-20.57c0.25-10.28,13.45-13.66,19.74-6.23" class="st4"></path>
        <path d="M977.98,657.36c-0.68-6.21-9.93-6.31-13.07-1.98" class="st5"></path>
        <path d="M977.81,656.63c-2.61-2.86-6.41,1.49-6.66,4.18" class="st5"></path>
</g>
    <g>
	<path d="M1516.85,637.69c10.56,1.21,24.02-9.11,23.74-20.57c-0.25-10.28-13.45-13.66-19.74-6.23" class="st4"></path>
        <path d="M1520.33,623.36c0.68-6.21,9.93-6.31,13.07-1.98" class="st5"></path>
        <path d="M1520.5,622.61c2.61-2.86,6.41,1.49,6.66,4.18" class="st5"></path>
</g>
    <g>
	<path d="M1409.75,637.69c-10.56,1.21-24.02-9.11-23.74-20.57c0.25-10.28,13.45-13.66,19.74-6.23" class="st4"></path>
        <path d="M1406.28,623.36c-0.68-6.21-9.93-6.31-13.07-1.98" class="st5"></path>
        <path d="M1406.1,622.61c-2.61-2.86-6.41,1.49-6.66,4.18" class="st5"></path>
</g>
    <path d="M642.05,528.33c7.89,3.8,12.12,11.64,12.19,20.4" class="st5"></path>
    <path d="M628.49,524.77c-3.79-8.62-16.7-9.65-24.55-8.77c-17.23,1.94-33.9,6.69-51.47,7.84" class="st5"></path>
    <path d="M631.51,518.17c-1.81-5.89-9.89-7.42-14.88-8.63c-9.35-2.27-19.57-0.56-28.99,1.66" class="st5"></path>
    <path d="M1863.73,580.39c-7.21,6.61-13.02,14.71-16.59,23.96c-6.87,17.78-5.68,37.42-4.37,56.28
	c1.31,18.81,3.35,39.35,16.39,52.41c10.84,10.86,27.38,14.1,42.7,12.17c48.66-6.13,81.57-50.35,78.98-98.17
	c-1.69-31.36-27.89-58.54-58.02-64.35C1902.13,558.69,1879.55,565.91,1863.73,580.39z" class="st9"></path>
    <path d="M1864.28,628.84c-9.18-9.2-21.62,0.13-21.62,0.13" class="st5"></path>
    <path d="M1891.77,630.48c15.72-11.72,34.18,3.35,34.18,3.35" class="st5"></path>
    <path d="M1859.9,644.59c-0.4,3.54-2.51,6.21-4.71,5.96s-3.69-3.3-3.29-6.84c0.4-3.54,2.51-6.21,4.71-5.96
	S1860.3,641.06,1859.9,644.59z"></path>
    <path d="M1907.76,647.36c-0.4,3.54-2.51,6.21-4.71,5.96s-3.69-3.3-3.29-6.84c0.4-3.54,2.51-6.21,4.71-5.96
	C1906.68,640.76,1908.14,643.83,1907.76,647.36z"></path>
    <path d="M1866.97,632.82c3.07,6.81,0.7,16.35-0.02,23.49c-0.43,4.35-2.18,9.73,2.59,12.3" class="st5"></path>
    <path d="M1928.45,678.79c4.2-6.56,2.29-15.29-4.27-19.49s-15.27-2.29-19.49,4.27c-4.2,6.56-2.29,15.29,4.27,19.49
	C1915.51,687.26,1924.23,685.35,1928.45,678.79z" class="st10"></path>
    <path d="M1877.49,700.77c9.58-2.42,13.45-15.09,15.67-23.14c-11.42,2.41-25.07,2.86-36.34-0.17
	c0,0,2.42,11.27,5.59,16.4C1865.49,698.85,1871.25,702.37,1877.49,700.77z" class="st4"></path>
    <g>
	<path d="M1844.27,676.48c3.04-0.5,5.84-2.19,7.64-4.98c3.37-5.26,1.84-12.27-3.42-15.66
		c-1.91-1.23-4.03-1.79-6.14-1.78c0.13,2.19,0.28,4.38,0.43,6.57C1843.15,665.86,1843.58,671.21,1844.27,676.48z"
          class="st10"></path>
</g>
    <path d="M1980.84,627.04c-1.69-31.36-27.89-58.54-58.02-64.35c-20.69-4-43.28,3.22-59.09,17.7
	c-7.21,6.61-13.02,14.71-16.59,23.96c-6.87,17.78-5.68,37.42-4.37,56.28c1.31,18.81,3.35,39.35,16.39,52.41
	c10.84,10.86,27.38,14.1,42.7,12.17c3.88-0.48,7.65-1.21,11.32-2.17" class="st5"></path>
    <path d="M1095.06,608.02c-2.39-9.88-7.19-18.91-13.61-26.58c-10.58-12.63-25.58-21.63-41.52-24.8h-10.61
	c-15.94,3.17-30.95,12.17-41.52,24.8c-6.44,7.69-11.24,16.7-13.61,26.58c-4.58,19.01-0.71,38.78,3.17,57.78
	c3.87,18.94,8.72,37.92,23.72,49.44c9,6.91,18.58,11.89,31.94,11.89h3.2c14.93,0,22.94-5,31.94-11.89
	c15.01-11.51,19.86-30.5,23.72-49.44C1095.77,646.8,1099.64,627.01,1095.06,608.02z" class="st4"></path>
    <path d="M1007.5,684.45c3.32-6.38,0.85-14.23-5.53-17.55c-6.38-3.32-14.23-0.85-17.55,5.53
	c-3.32,6.38-0.85,14.23,5.53,17.55S1004.18,690.83,1007.5,684.45z" class="st11"></path>
    <ellipse ry="13.02" rx="13.02" cy="678.42" cx="1073.71" class="st11"
             transform="matrix(0.9246 -0.3809 0.3809 0.9246 -177.4722 460.1256)"></ellipse>
    <path d="M1047.16,637.62c18.2-8.15,32.81,2.82,32.81,2.82" class="st5"></path>
    <path d="M1022.02,637.62c-18.2-8.15-32.81,2.82-32.81,2.82" class="st5"></path>
    <path d="M1064.19,654.65c-0.08,3.65-1.98,6.56-4.27,6.51c-2.27-0.05-4.07-3.04-3.98-6.69s1.98-6.56,4.27-6.51
	C1062.48,648.01,1064.28,651,1064.19,654.65z"></path>
    <path d="M1006.3,654.65c0.08,3.65,1.98,6.56,4.27,6.51c2.27-0.05,4.07-3.04,3.98-6.69s-1.98-6.56-4.27-6.51
	C1008.01,648.01,1006.22,651,1006.3,654.65z"></path>
    <path d="M1033.51,643.36c3.15,6.97,0.71,16.75,0,24.07c-0.43,4.45-2.22,9.96,2.66,12.6" class="st5"></path>
    <path d="M1039.12,712.23c9.7-2.91,13.1-16.05,15.02-24.39c-11.59,2.99-25.55,4.03-37.22,1.44c0,0,2.97,11.42,6.46,16.55
	C1026.72,710.78,1032.78,714.12,1039.12,712.23z" class="st4"></path>
    <path d="M1522.82,570c-2.39-9.88-7.19-18.91-13.61-26.58c-10.58-12.63-25.58-21.63-41.52-24.8h-10.61
	c-15.94,3.17-30.95,12.17-41.52,24.8c-6.44,7.69-11.24,16.7-13.61,26.58c-4.58,19.01-0.71,38.78,3.17,57.78
	c3.87,18.94,8.72,37.92,23.72,49.44c9,6.91,18.58,11.89,31.94,11.89h3.2c14.93,0,22.94-5,31.94-11.89
	c15.01-11.51,19.86-30.5,23.72-49.44C1523.54,608.76,1527.41,588.99,1522.82,570z" class="st4"></path>
    <path d="M1435.28,646.42c3.32-6.38,0.85-14.23-5.53-17.55c-6.38-3.32-14.23-0.85-17.55,5.53
	c-3.32,6.38-0.85,14.23,5.53,17.55C1424.09,655.27,1431.96,652.79,1435.28,646.42z" class="st11"></path>
    <path d="M1489.95,646.42c-3.32-6.38-0.85-14.23,5.53-17.55c6.38-3.32,14.23-0.85,17.55,5.53s0.85,14.23-5.53,17.55
	C1501.14,655.27,1493.27,652.79,1489.95,646.42z" class="st11"></path>
    <path d="M1474.93,599.58c18.2-8.15,32.81,2.82,32.81,2.82" class="st5"></path>
    <path d="M1449.79,599.58c-18.2-8.15-32.81,2.82-32.81,2.82" class="st5"></path>
    <path d="M1491.96,616.62c-0.08,3.65-1.98,6.56-4.27,6.51c-2.27-0.05-4.07-3.04-3.98-6.69c0.08-3.65,1.98-6.56,4.27-6.51
	C1490.25,609.99,1492.04,612.98,1491.96,616.62z"></path>
    <ellipse ry="6.61" rx="4.12" cy="616.6" cx="1438.19"
             transform="matrix(0.9998 -0.0207 0.0207 0.9998 -12.4552 29.9022)"></ellipse>
    <path d="M1461.28,605.33c3.15,6.97,0.71,16.75,0,24.07c-0.43,4.45-2.22,9.96,2.66,12.6" class="st5"></path>
    <path d="M1466.89,674.19c9.7-2.91,13.1-16.05,15.02-24.39c-11.59,2.99-25.55,4.03-37.22,1.44c0,0,2.97,11.42,6.46,16.55
	C1454.51,672.75,1460.55,676.1,1466.89,674.19z" class="st4"></path>
    <path d="M737.9,1158.36c-5.11,9.93-13.51,22.33-22.41,32.31c-2.14,2.39-3,6.38,1.06,8.42
	c4.38,2.21,11.02-2.97,14.18-5.41c3.5-2.71,6.89-5.91,9.76-9.26c5.13-5.99,9.7-17.3,16.44-21.75c9.51,4.93,4.57,16.52,2.26,24.07
	c-0.61,1.99-1.63,7.49,2.06,8.38c1.83,0.45,9.71-6.86,11.02-8.38c3.32-3.9,5.74-10.36,6.42-15.32c1.08-7.65-0.78-15.62-2.76-23.01
	c-0.63-2.34-1-3.14-0.37-5.38c0.55-1.98,2.21-3.84,3.32-5.51c6.79-10.33,14.23-20.04,21.77-29.85l-47.4-10.34
	c-4.02,6.14-10.58,14.83-15.69,20.02c-5.99,6.13-15.06,8.82-22.2,12.17c-14.16,6.64-29.05,20.98-32.84,28.56
	c-3.12,6.23-4.1,18.69-2.44,25.38c10.36,0.98,14.51-12.82,16.42-18.05" class="st4"></path>
    <path d="M705.85,1145.34c-11.79,19.44-24.42,40.54-23.26,63.97c4.2,1.94,5.46-1.01,7.82-3.64
	c11.52-12.75,19.77-27.79,29.45-42.3" class="st4"></path>
    <path d="M720.53,1153.01c0,0-9.48,12.62-12.43,17.32c-7.16,11.37-13.58,19.67-18.28,32.36
	c-0.76,2.06-6.01,9.68-2.04,10.97c0.68,0.23,1.44,0.1,2.14-0.07c6.47-1.56,11.92-7.11,16.44-11.67c3.88-3.93,6.97-8.43,10.29-12.82
	c7.22-9.53,15.42-19.26,20.9-29.75" class="st4"></path>
    <path d="M548.3,695.44c-21.1,18.3-115.82,38.98-139.14,51.13c-16.98,8.85-16.98,50.44-17.37,68.7
	c-0.75,35-8.7,166.44-14.99,200.44c-4.7,25.3,1.96,36.96,11.32,60.27c11.44,28.47,19.94,67.85,43.73,82.23
	c13.78-21.55,38.12-21.72,60.41-27.56c17.96-31.24,25.42-63.32,37.37-96.79c13.08-36.62,28.7-70.76,30.78-109.77
	C563.96,857.23,554.61,775.42,548.3,695.44z" class="st6"></path>
    <path d="M732.55,1117.3c21.15-15.46,48.11,15.29,52.05,33.77c8.3-3.09,14.58-11.02,18.68-18.26
	c-10.06-10.79-36.04-35.16-51.37-39.36C751.91,1093.45,745.27,1100.93,732.55,1117.3z" class="st4"></path>
    <path d="M689.85,1148.43c-18.59-16.55-39.5-48.21-47.1-67.85c-7.37-19.04-10.74-41.6-13.05-61.84
	c-3.15-27.73-3.93-55.37-3.93-83.24c0.02-64.76,37.09-239.7,22.4-257.08c11.57,13.05,15.99,14.59,31.15,21.02
	c28.51,12.09,76.75,26.08,106.4,35.06c3.92,1.2,10.23,1.84,13.7,4.1c7.39,4.8,7.87,13.6,9.73,21.9c5.16,23.21,8.6,43.58,11.89,67.09
	c10.34,74.1,26.38,168.89,25.15,172.21c-3.47,9.35,0.2,18.33-0.02,21.8c-0.23,3.6-2.76,7.84-3.9,11.24
	c-4.3,12.82-26.31,84.32-30.75,92.49c-4.85,8.95-10.84,23.14-16.52,23.14c-1.64-7.22-5.36-13.78-9.11-19.99
	c-11.65-19.28-31.18-32.97-53.46-20.06c3.09-11.17,18.38-34.5,25.53-51.9c4.17-10.11,10.16-18.61,7.94-26.03
	c-1.1-3.65-2.94-3.35-3.49-8.57c-0.08-0.78,2.21-5.51,1.83-7.16c-0.43-1.94-3.5-2.82-4.08-4.93c-7.02-26.31-4.22-61.44-13.22-88.12
	c0,36.38-9.35,105.24,8.52,140.47" class="st6"></path>
    <path d="M516.47,1268.25c-2.76-22.61-0.53-45.54-7.75-67.52" class="st7"></path>
    <path d="M696.89,1262.72c-2.37-10.94-3.49-22.01-3.32-33.2" class="st7"></path>
    <path d="M465.56,1011.48c0-56.99-5.46-90.91-10.76-147.68" class="st5"></path>
    <path d="M747.79,939.53c1.11-24.36,0.07-49.49,1.11-74.16" class="st5"></path>
    <g>
	<path d="M457.64,1123.4c-4.25-7.27-4.43-18.21-5.48-26.18c-3.67-28.14-10.63-90.78-13.41-118.97
		c37.11,7.54,100.92,27.97,139.94,28.59c-8.57,39.5-4.78,101.22,21.02,135.17c-2.32,3.97-26.5,3.88-34.3,4.05
		C530.7,1146.79,490.94,1143.35,457.64,1123.4z" class="st4"></path>
        <path d="M426.84,1149.68c-4.15,0.76-5.18,3.74-4.67,7.67c0.8,6.18,6.28,9.38,11.39,12.19
		c6.81,3.74,12.1,7.04,19.97,5.79c3.39-0.53,15.36-5.33,14.34-10.48c-0.66-3.35-7.69-3.12-10.03-3.5c-3.59-0.58-7.14-1.2-10.31-3.05
		C441.52,1154.77,434.96,1152.43,426.84,1149.68z" class="st4"></path>
        <path d="M429.18,1136.66c-10.53,1.33-6.18,13.5-0.18,18.2c7.34,5.73,17.4,10.86,26.55,12.52
		c8.25,1.49,18.1-5.36,21.86-12.55c2.13-4.05,0.6-4.95-3.65-5.84c-4.23-0.9-8.6-0.48-12.82-1.46c-9.1-2.14-16.78-7.44-25.75-9.84
		L429.18,1136.66z" class="st4"></path>
        <path d="M439.69,1119.94c-4.52,0-7.27,1.1-10.69,3.95c-4.58,3.82-6.04,7.34-1.99,12.32c3.7,4.55,8.75,7.19,13.71,10.23
		c6.03,3.7,13.12,7.95,20.39,8.6c6.23,0.55,20.17-1.03,24.45-8.52c1.34-2.36,1.66-3.45-0.98-5.18c-4.08-2.67-9.89-3.67-14.49-5.2
		C459.66,1132.73,449.07,1128.64,439.69,1119.94z" class="st4"></path>
        <path d="M437.51,1121.3c9.68,14.49,16.05,16.98,32.06,20.19c4.81,0.96,16.6,4.13,21.37,1.86
		c7.97-3.82-1.61-8.32-5.68-10.68c-12.34-7.14-26.38-13.05-33.05-26.73c-1.26-2.59-9.68-1.21-12.24-0.45
		C431.8,1107.96,432.65,1114,437.51,1121.3z" class="st4"></path>
</g>
    <path d="M753.34,848.78c0,0,9.96-88.64,29.88-107.37" class="st7"></path>
    <path d="M454.5,849.88c-8.98-33.54-14.81-66.29-37.64-95.18" class="st7"></path>
    <path d="M535.28,1173.07c19.42-2.22,39.03-5.23,58.66-4.43" class="st7"></path>
    <path d="M559.64,1189.67c11.11-2.82,22.16-5.78,33.2-8.85" class="st7"></path>
    <path d="M618.29,1185.24c22.83,3.7,55.7,9.88,55.7,9.88" class="st7"></path>
    <path d="M626.05,1170.86c16.93-6.29,33.64-10.59,50.92-15.49" class="st7"></path>
    <path d="M716.81,1143.19c0.98-1.53,2.19-2.39,3.87-2.77" class="st5"></path>
    <path d="M730.64,1150.37c1.28-1.36,2.37-2.82,3.32-4.43" class="st5"></path>
    <path d="M749.45,1155.92c0.6-1.66,1.16-3.34,1.66-4.98" class="st5"></path>
    <path d="M769.37,1158.13c-0.22-1.33-0.6-2.64-1.11-3.87" class="st5"></path>
    <path d="M525.6,707.38c-8.23,16.29-9.06,35.01-14.11,52.3c10.03,5.48,18.71,9.83,29.05,14.11
	c-7.77,1.34-27.39,24.9-27.39,24.9c6.64,31.38,5.26,62.08,9.96,93.42c4.5,30,15.02,72.93,17.43,104.14"
          class="st5"></path>
    <path d="M675.85,700.46c8.67,13.98,14.19,37.89,18.89,54.24c0,0-24.17,9.86-33.27,14.39
	c7.34,8.77,18.64,14.59,28.77,19.92c-3.2,25.8-8.45,50.72-14.91,75.9c-7.07,27.64-22.86,65.43-30.95,93.14
	c-5.68,19.41-10.46,43.33-9.84,63.64" class="st5"></path>
    <path d="M874.33,1015.35c8.53-9.1,14.53-20.74,27.49-23.86c12.25-2.94,30.32-2.22,42.32,1.26
	c4.17,18.83,13.17,30.71,13.17,50.75c-9.94,4.03-14.21,5.1-27.34,11.72c-16.73,8.43-34.4,13.85-51.02,3.7
	c-14.51-8.85-18.3-21.12-17.63-39.68c2.26-63.54,7.45-99.03,0-161.36c-2.29-19.24-6.56-62.52,16.4-71.74
	c45.54-18.28,79.82-20.79,118.36-52.74c5.66,26.73,5.35,54.79,7.32,82.03c1.59,22,4.07,44.01,6.33,65.93
	c3.75,36.38,10.91,72.77,15.89,109.41c5.53,40.61,8.67,75.99-3.17,116.68c-3.84,13.15-6.66,23.29-21.98,28.8
	c-7.49,2.71-16.04,1.33-23.96,0.98c-30.73-1.36-59.53-2.74-89.32-12.97c9.4-16.5,17.83-60.33,17.83-60.33"
          class="st4"></path>
    <path d="M918.97,989.67c3.15-34.18,5.28-67.74,3.57-121.34" class="st5"></path>
    <path d="M901.36,990.3c-4.07,0.07-10.36,0.03-13.9,1.66c-5.38,2.49-14.43,9.08-14.43,9.08" class="st5"></path>
    <path d="M918.94,858.44c-0.91-16.49-13.5-70.51-33.4-72.27" class="st7"></path>
    <path d="M973.63,751.03c-4.4,18.2-8.4,36.47-12.7,54.69c10.09,7.47,18.1,14.78,29.3,20.5
	c-6.84,9.43-20.15,19.09-29.3,26.36c9.94,26.35,16.92,54.16,32.22,78.13" class="st5"></path>
    <path d="M1194.67,1015.35c-8.53-9.1-14.53-20.74-27.49-23.86c-12.25-2.94-30.32-2.22-42.32,1.26
	c-4.17,18.83-13.17,30.71-13.17,50.75c9.94,4.03,14.21,5.1,27.34,11.72c16.73,8.43,34.4,13.85,51.02,3.7
	c14.51-8.85,18.3-21.12,17.63-39.68c-2.26-63.54-7.45-99.03,0-161.36c2.29-19.24,6.56-62.52-16.4-71.74
	c-45.54-18.28-79.82-20.79-118.36-52.74c-5.66,26.73-5.35,54.79-7.32,82.03c-1.59,22-4.07,44.01-6.33,65.93
	c-3.75,36.38-10.91,72.77-15.89,109.41c-5.53,40.61-8.67,75.99,3.17,116.68c3.84,13.15,6.64,23.29,21.98,28.8
	c7.49,2.71,16.04,1.33,23.96,0.98c30.73-1.36,59.54-3.09,89.32-13.31c-9.4-16.5-14.16-59.3-14.16-59.3"
          class="st4"></path>
    <path d="M1150.01,989.67c-3.65-39.41-5.28-67.74-3.57-121.34" class="st5"></path>
    <path d="M1167.64,990.3c4.07,0.07,10.36,0.03,13.9,1.66c5.38,2.49,14.43,9.08,14.43,9.08" class="st5"></path>
    <path d="M1150.06,858.44c0.91-16.49,13.5-70.51,33.4-72.27" class="st7"></path>
    <path d="M1095.37,751.03c4.4,18.2,8.4,36.47,12.7,54.69c-10.09,7.47-18.1,14.78-29.3,20.5
	c6.84,9.43,20.16,19.09,29.3,26.36c-9.94,26.35-16.92,54.16-32.22,78.13" class="st5"></path>
    <path d="M1095.54,645.95c-1.23-14.86-21.3-17.52-32.62-23.49c-9.48-5-19.52-8.88-28.8-14.26
	c-9.7-5.63-16.05-13.71-24.57-20.64c-8.72,5.06-16.75,17.05-22.7,25.35c-6.92,9.66-16.4,21.2-12.72,33.32
	c-4.58-16.4-9.25-30.03-4.83-47.32c4.7-18.36,13.65-31.26,32.46-37.67c15.16-16.29,40.91-12.09,53.99-8.14
	c17.53,5.28,34.83,18.41,40.97,36.06C1102.78,606.51,1105.28,629.38,1095.54,645.95" class="st6"></path>
    <path d="M656.76,589.51c6.34-7.74,8.43-19.34,8.3-29.05" class="st5"></path>
    <path d="M658.42,599.47c4.2-6.34,11.8-10.33,13.28-18.26" class="st5"></path>
    <path d="M1012.88,576.22c9.23-0.68,17.25,7.49,23.56,12.97c7.74,6.72,22.88,17.33,32.89,20.57" class="st5"></path>
    <path d="M1011.22,570.41c16.77-9.7,30.68,15.54,44,19.09" class="st5"></path>
    <path d="M1003.74,578.71c-9.33-4.08-16.49,12.52-19.09,18.26" class="st5"></path>
    <g>
	<path d="M1149.24,995.23c-8.7,2.79-21.33,1.56-30.61,1.58c-13.86,0-28.19,0.4-42,0.4c0.02-38.28-3.6-74.56-2.39-112.96
		c23.61-2.82,48.51-3.62,72.25-3.62c0,0,2.19,32.76,2.96,48.28C1150.62,952.16,1150.27,971.9,1149.24,995.23z"
          class="st4"></path>
        <path d="M1149.24,984.42c-8.7,2.79-21.33,1.56-30.61,1.58c-13.86,0-28.19,0.4-42,0.4" class="st7"></path>
        <path d="M1074.25,899.27c23.61-2.82,48.51-3.62,72.25-3.62" class="st7"></path>
        <path d="M1095.32,905.23c11.24-1.63,23.09-2.09,34.38-2.09" class="st7"></path>
        <path d="M1090.29,971.55c15.46-1.01,31.68-0.51,47.08,0.51" class="st7"></path>
        <path d="M1099.19,977.46c9.61-0.63,19.71-0.32,29.29,0.32" class="st7"></path>
        <g>
		<g>
			<path d="M1130.19,957.44c-3.8,1.06-9.33,0.6-13.38,0.6c-6.06,0-12.32,0.15-18.36,0.15
				c0.02-14.48-1.58-28.17-1.05-42.7c10.33-1.06,21.22-1.36,31.59-1.36c0,0,0.96,12.39,1.3,18.25
				C1130.78,941.15,1130.63,948.63,1130.19,957.44z" class="st12" id="SVGID_1_"></path>
		</g>
            <g>
			<defs>
				<path d="M1130.19,957.44c-3.8,1.06-9.33,0.6-13.38,0.6c-6.06,0-12.32,0.15-18.36,0.15
					c0.02-14.48-1.58-28.17-1.05-42.7c10.33-1.06,21.22-1.36,31.59-1.36c0,0,0.96,12.39,1.3,18.25
					C1130.78,941.15,1130.63,948.63,1130.19,957.44z" id="SVGID_2_"></path>
			</defs>
                <clipPath id="SVGID_4_">
				<use style="overflow:visible;" xlink:href="#SVGID_2_"></use>
			</clipPath>
                <g class="st13">
				<path d="M1129.09,946.53c0,0-3.65-1.94-5.11-2.14c-1.46-0.2-2.97-0.68-3.97-1.86c-0.51-0.61-0.85-1.38-1.1-2.16
					c-0.3-0.95-0.5-1.94-0.58-2.94l-8.14,0.55c0.07,1,0,2.01-0.17,2.99c-0.15,0.8-0.37,1.61-0.8,2.29
					c-0.81,1.31-2.26,1.99-3.67,2.39c-1.41,0.38-4.78,2.81-4.78,2.81l0.7,10.18l28.29-1.93L1129.09,946.53z"
                      class="st14"></path>
                    <path d="M1131.9,974.39l-1.86-27.24c-6.99,4.8-20.24,5.23-27.81,2.34l1.23,24.55L1131.9,974.39z"
                          class="st15"></path>
                    <g>
					<path d="M1121.17,933.24c1.43,0.07,3.14-1.44,3-2.97c-0.13-1.38-1.93-1.71-2.71-0.66"
                          class="st14"></path>
                        <path d="M1121.5,931.28c0.03-0.85,1.28-0.93,1.73-0.38" class="st16"></path>
                        <path d="M1121.52,931.18c0.33-0.4,0.88,0.15,0.93,0.5" class="st16"></path>
				</g>
                    <g>
					<path d="M1106.79,934.2c-1.41,0.27-3.3-1-3.37-2.54c-0.07-1.38,1.68-1.96,2.59-1.01"
                          class="st14"></path>
                        <path d="M1106.21,932.31c-0.15-0.83-1.39-0.76-1.78-0.15" class="st16"></path>
                        <path d="M1106.18,932.22c-0.38-0.37-0.85,0.27-0.86,0.61" class="st16"></path>
				</g>
                    <path d="M1121.45,924.62c-0.42-1.3-1.13-2.47-2.08-3.44c-1.53-1.59-3.64-2.67-5.79-2.96l-1.43,0.1
					c-2.11,0.56-4.03,1.91-5.35,3.7c-0.8,1.1-1.36,2.34-1.58,3.69c-0.45,2.59,0.27,5.21,0.95,7.72c0.7,2.51,1.51,5.01,3.64,6.41
					c1.28,0.85,2.61,1.43,4.4,1.31l0.43-0.03c2.01-0.13,3.04-0.88,4.18-1.89c1.91-1.68,2.39-4.27,2.74-6.84
					C1121.9,929.82,1122.25,927.13,1121.45,924.62z" class="st14"></path>
                    <path d="M1110.41,935.68c0.38-0.88-0.02-1.91-0.9-2.31c-0.88-0.38-1.91,0.02-2.31,0.9
					c-0.38,0.88,0.02,1.91,0.9,2.31C1108.98,936.97,1110.03,936.56,1110.41,935.68z" class="st11"></path>
                    <path d="M1117.75,935.18c-0.5-0.83-0.25-1.89,0.58-2.41c0.83-0.5,1.89-0.25,2.41,0.58
					c0.5,0.83,0.25,1.89-0.58,2.41C1119.33,936.26,1118.25,936.01,1117.75,935.18z" class="st11"></path>
                    <path d="M1115.31,929.04c2.36-1.26,4.43,0.08,4.43,0.08" class="st16"></path>
                    <path d="M1111.92,929.27c-2.51-0.93-4.38,0.68-4.38,0.68" class="st16"></path>
                    <path d="M1117.73,931.16c0.02,0.48-0.2,0.9-0.51,0.91c-0.3,0.02-0.56-0.37-0.6-0.86c-0.02-0.48,0.2-0.9,0.51-0.91
					C1117.45,930.28,1117.72,930.68,1117.73,931.16z"></path>
                    <path d="M1109.98,931.69c0.05,0.48,0.33,0.86,0.63,0.83c0.3-0.03,0.51-0.45,0.48-0.93c-0.05-0.48-0.33-0.86-0.63-0.83
					C1110.15,930.78,1109.93,931.21,1109.98,931.69z"></path>
                    <path d="M1113.52,929.93c0.48,0.91,0.25,2.24,0.22,3.24c-0.02,0.6-0.22,1.36,0.46,1.66"
                          class="st16"></path>
                    <path d="M1114.91,939.11c1.28-0.48,1.61-2.27,1.79-3.4c-1.53,0.5-3.39,0.78-4.98,0.53c0,0,0.5,1.51,1.01,2.16
					C1113.24,939.03,1114.07,939.43,1114.91,939.11z" class="st14"></path>
                    <path d="M1095.57,981.27c1.06-1.29,1.76-2.92,3.47-3.45c1.61-0.5,4.05-0.58,5.69-0.22c0.73,2.49,2.04,4,2.22,6.69
					c-1.3,0.63-1.86,0.81-3.55,1.83c-2.17,1.28-4.48,2.17-6.81,0.96c-2.03-1.06-2.64-2.67-2.72-5.16
					c-0.28-8.53,0.1-13.35-1.48-21.63c-0.48-2.56-2.34-8.27,0.65-9.71c5.94-2.87,11.41-3.57,16.29-8.22c1,3.54,1.21,7.3,1.73,10.94
					c0.42,2.94,0.95,5.86,1.44,8.78c0.83,4.85,2.13,9.66,3.14,14.53c1.11,5.4,1.86,10.11,0.65,15.67c-0.4,1.79-0.68,3.19-2.69,4.07
					c-0.98,0.43-2.14,0.33-3.2,0.35c-4.13,0.1-8,0.18-12.1-0.93c1.11-2.31,1.84-8.25,1.84-8.25"
                          class="st14"></path>
                    <path d="M1106.48,944.91c-0.43,2.47-0.8,4.96-1.2,7.45c1.43,0.91,2.56,1.81,4.12,2.49
					c-0.83,1.33-2.52,2.74-3.69,3.8c1.58,3.44,2.76,7.11,5.03,10.18" class="st16"></path>
                    <path d="M1138.54,978.34c-1.23-1.15-2.14-2.66-3.9-2.96c-1.68-0.28-4.08-0.02-5.66,0.55
					c-0.38,2.56-1.48,4.23-1.3,6.92c1.38,0.45,1.96,0.55,3.77,1.33c2.32,0.98,4.73,1.54,6.87,0.03c1.86-1.33,2.26-3.01,2.01-5.48
					c-0.88-8.5-1.91-13.22-1.48-21.63c0.13-2.61,1.2-8.5-1.96-9.53c-6.28-2.04-11.79-1.99-17.25-5.93
					c-0.51,3.64-0.22,7.39-0.23,11.07c-0.02,2.97-0.15,5.94-0.25,8.9c-0.17,4.91-0.8,9.86-1.13,14.83
					c-0.37,5.5-0.46,10.28,1.49,15.62c0.63,1.73,1.11,3.05,3.2,3.67c1.03,0.3,2.16,0.03,3.22-0.08c4.12-0.46,7.95-0.96,11.85-2.61
					c-1.41-2.13-2.44-7.82-2.44-7.82" class="st14"></path>
                    <path d="M1122.8,943.81c0.76,2.41,1.46,4.81,2.21,7.22c-1.28,1.1-2.29,2.14-3.74,3.02c1,1.2,2.87,2.37,4.17,3.27
					c-1.1,3.62-1.78,7.42-3.6,10.77" class="st16"></path>
                    <path d="M1121.87,929.72c-0.3-1.98-3.02-2.16-4.58-2.86c-1.31-0.58-2.71-1.01-3.98-1.64
					c-1.34-0.66-2.27-1.69-3.49-2.54c-1.13,0.76-2.09,2.44-2.81,3.6c-0.85,1.36-2.01,2.99-1.39,4.58c-0.76-2.16-1.51-3.95-1.08-6.31
					c0.46-2.51,1.54-4.32,4-5.35c1.88-2.32,5.38-1.99,7.17-1.58c2.41,0.55,4.83,2.16,5.83,4.47
					C1122.48,924.35,1123.01,927.39,1121.87,929.72" class="st15"></path>
                    <path d="M1110.15,921.12c1.23-0.18,2.37,0.85,3.27,1.53c1.1,0.83,3.22,2.11,4.6,2.46"
                          class="st16"></path>
                    <path d="M1109.86,920.35c2.16-1.46,4.25,1.81,6.08,2.16" class="st16"></path>
                    <path d="M1108.94,921.53c-1.3-0.46-2.09,1.83-2.39,2.62" class="st16"></path>
                    <path d="M1122.23,928.84c-0.17-1.08-0.08-2.01-0.4-3.1c-0.35-1.16-0.81-2.36-1.68-3.24"
                          class="st16"></path>
			</g>
		</g>
            <g>
			<path d="M1130.19,957.44c-3.8,1.06-9.33,0.6-13.38,0.6c-6.06,0-12.32,0.15-18.36,0.15
				c0.02-14.48-1.58-28.17-1.05-42.7c10.33-1.06,21.22-1.36,31.59-1.36c0,0,0.96,12.39,1.3,18.25
				C1130.78,941.15,1130.63,948.63,1130.19,957.44z" class="st7"></path>
		</g>
	</g>
</g>
    <g>
	<g>
		<g>
			<path d="M1005.74,934.03c-21.83,0.56-46.25,1.44-68.53,7.32c1.36,7.37,2.61,14.76,4,22
				c1.11,5.78,3.07,17.5,3.07,17.5c6.36,25.68,5.91,70.46,5.91,97.04c22.88,2.99,53.62,7.77,73.83,7.75
				c32.64-0.03,65.93-0.83,98.04-7.19c0-21.78,5.06-76.95,12.57-97.59c0,0,1.98-11.72,3.07-17.5c1.54-8.02,2.89-16.22,4.45-24.39
				C1096.95,935.01,1052.04,932.85,1005.74,934.03z" class="st4"></path>
		</g>
        <path d="M1125.8,999.73c-7.97-5.25-14.44-11.47-22.79-16.2c-5.74-3.25-11.21-7.42-15.87-12.07
			c-2.92-2.91-6.42-9.25-0.02-8.85c6.39,0.4,12.98,4.5,18.89,6.76c5.03,1.93,10.53,2.87,15.31,5.36c4.33,2.24,8.9,7.17,13.6,8.38
			c0.8-5.1,1.59-14.79,1.59-14.79c2.22,0.86,3.02,1.31,5.13,2.21c4.8,19.72,22.23,35.83,11.84,57.18c0,0-8.3,16.12-16.12,15.79
			c-11.74-0.5-24.89-1.26-31.84-10.23c-7.14-9.2-13.41-18.13-14.79-28.99l11.97-18.64" class="st4"></path>
        <path d="M1104.65,985.08c-7.42-5.36-13.75-12.15-22.71-12.62c-3.65-0.18-5.21,1.73-3.17,5.38
			c2.64,4.72,7.19,10.58,11.26,14.1c8.8,7.59,19.03,16.87,29.92,21.15" class="st4"></path>
        <path d="M1088.38,991.26c0.25,1.21-0.18,3.92,0.33,5.84c0.85,3.2,2.47,6.41,4.25,9.28
			c5.23,8.45,14.83,17.48,24.07,21.33" class="st4"></path>
        <path d="M953.08,999.73c7.97-5.25,14.44-11.47,22.79-16.2c5.74-3.25,11.21-7.42,15.87-12.07
			c2.92-2.91,6.42-9.25,0.02-8.85c-6.39,0.4-12.98,4.5-18.89,6.76c-5.03,1.93-10.53,2.87-15.31,5.36c-4.33,2.24-8.9,7.17-13.6,8.38
			c-0.8-5.1-1.59-14.79-1.59-14.79c-2.22,0.86-3.02,1.31-5.13,2.21c-4.8,19.72-22.23,35.83-11.84,57.18c0,0,8.3,16.12,16.12,15.79
			c11.74-0.5,24.89-1.26,31.84-10.23c7.14-9.2,13.41-18.13,14.79-28.99l-11.97-18.64" class="st4"></path>
        <path d="M974.23,985.08c7.42-5.36,13.75-12.15,22.71-12.62c3.65-0.18,5.21,1.73,3.17,5.38
			c-2.64,4.72-7.19,10.58-11.26,14.1c-8.8,7.59-19.03,16.87-29.92,21.15" class="st4"></path>
        <path d="M990.51,991.26c-0.25,1.21,0.18,3.92-0.33,5.84c-0.85,3.2-2.47,6.41-4.25,9.28
			c-5.23,8.45-14.83,17.48-24.07,21.33" class="st4"></path>
	</g>
        <path d="M944.33,996.8c-1.64,0.9-3.37,1.43-5.21,1.63" class="st5"></path>
        <path d="M950.19,1008.84c-1.78,1.25-3.8,2.22-5.86,2.92" class="st5"></path>
        <path d="M953.44,1023.82c-1.79,0.71-3.64,1.15-5.53,1.3" class="st5"></path>
        <path d="M954.42,1036.18c1,0.13,1.99,0.02,2.92-0.33" class="st5"></path>
        <path d="M1134.77,996.16c1.21,0.63,2.51,1.21,3.9,1.3" class="st5"></path>
        <path d="M1129.22,1011.13c1.68,0.68,3.4,1.01,5.21,0.98" class="st5"></path>
        <path d="M1124.67,1024.8c1.18,0.27,2.37,0.38,3.59,0.33" class="st5"></path>
        <path d="M1121.09,1035.21c0.85,0.32,1.71,0.42,2.61,0.33" class="st5"></path>
</g>
    <path d="M1442.3,1112.62c0-89.75-1.1-180.85-16.95-267.89c-8.09-44.39-21.13-95.36-6.91-140.19
	c-33.49,22.28-51.7,29.88-90.02,44.79c-14.38,5.59-56.2,16.19-64.28,29.67c-10.33,17.23-9,49.66-9.73,69.23
	c-2.72,72.7,2.56,107.58-5.73,171.32c-2.27,17.45-3.52,31.88,5.91,45.36c9.16,13.1,44.54,46.34,62.92,63.2
	c4.55,4.18,27.48,20.09,33.07,21.58c7.27,1.94,9.94-8.33,17.05-10.96C1390.12,1130.43,1419.53,1120.08,1442.3,1112.62z"
          class="st6"></path>
    <path d="M1324.26,894.49c6.23,20.57,6.79,51.62,6.79,72.95c0,34.85,0.23,49.18-0.02,83.89" class="st5"></path>
    <path d="M1323.45,887.3c-5.68-18.73-34.3-101.19-47.02-115.58" class="st7"></path>
    <path d="M1381.66,726.51c-3.98,17.4-11.9,29.27-17.27,46.42c8.47,7.06,19.31,9.71,28.14,15.64
	c-10.01,7.16-19.92,11.56-28.14,20.85c14.43,73.86,42.92,142.65,66.71,213.69" class="st5"></path>
    <path d="M1485.59,1112.62c0-89.75,1.1-180.85,16.95-267.89c8.09-44.39,21.13-95.36,6.91-140.19
	c33.49,22.28,51.7,29.88,90.02,44.79c14.38,5.59,56.2,16.19,64.28,29.67c10.33,17.23,9,49.66,9.73,69.23
	c2.72,72.7-2.56,107.58,5.73,171.32c2.27,17.45,3.52,31.88-5.91,45.36c-9.16,13.1-44.54,46.34-62.92,63.2
	c-4.55,4.18-27.48,20.09-33.07,21.58c-7.27,1.94-9.94-8.33-17.05-10.96C1537.78,1130.43,1508.38,1120.08,1485.59,1112.62z"
          class="st6"></path>
    <path d="M1603.63,894.49c-6.23,20.57-6.79,51.62-6.79,72.95c0,34.85-0.23,49.18,0.02,83.89" class="st5"></path>
    <path d="M1604.46,887.3c5.68-18.73,34.3-101.19,47.02-115.58" class="st7"></path>
    <path d="M1545.72,725.74c3.98,17.4,12.42,30.05,17.78,47.2c-8.47,7.06-19.31,9.71-28.14,15.64
	c10.01,7.16,19.92,11.56,28.14,20.85c-14.43,73.86-42.92,142.65-66.71,213.69" class="st5"></path>
    <g>
	<path d="M1594,985.43c-8.98,2.89-22.03,1.63-31.63,1.63c-14.31,0-29.12,0.42-43.38,0.4
		c0.02-39.56-3.72-77.02-2.47-116.7c24.39-2.91,50.12-3.74,74.64-3.74c0,0,2.26,33.84,3.05,49.87
		C1595.41,940.94,1595.06,961.34,1594,985.43z" class="st4"></path>
        <path d="M1594,974.26c-8.98,2.89-22.03,1.63-31.63,1.63c-14.31,0-29.12,0.42-43.38,0.4" class="st7"></path>
        <path d="M1516.52,886.28c24.39-2.91,50.12-3.74,74.64-3.74" class="st7"></path>
        <path d="M1538.28,892.44c11.6-1.68,23.86-2.16,35.51-2.16" class="st7"></path>
        <path d="M1533.08,960.98c15.97-1.05,32.72-0.53,48.64,0.53" class="st7"></path>
        <path d="M1542.28,967.07c9.94-0.65,20.35-0.33,30.27,0.33" class="st7"></path>
        <g>
		<g>
			<path d="M1574.31,946.4c-3.93,1.1-9.63,0.61-13.83,0.61c-6.26,0-12.73,0.15-18.98,0.15
				c0.02-14.94-1.63-29.1-1.08-44.11c10.66-1.1,21.91-1.41,32.64-1.41c0,0,0.98,12.78,1.33,18.84
				C1574.92,929.57,1574.77,937.29,1574.31,946.4z" class="st12" id="SVGID_3_"></path>
		</g>
            <g>
			<defs>
				<path d="M1574.31,946.4c-3.93,1.1-9.63,0.61-13.83,0.61c-6.26,0-12.73,0.15-18.98,0.15
					c0.02-14.94-1.63-29.1-1.08-44.11c10.66-1.1,21.91-1.41,32.64-1.41c0,0,0.98,12.78,1.33,18.84
					C1574.92,929.57,1574.77,937.29,1574.31,946.4z" id="SVGID_6_"></path>
			</defs>
                <clipPath id="SVGID_8_">
				<use style="overflow:visible;" xlink:href="#SVGID_6_"></use>
			</clipPath>
                <g class="st17">
				<path d="M1574.92,939.76c0,0-4.4-3.92-6.04-4.17c-1.64-0.25-3.17-1.44-4.25-2.82c-0.56-0.71-0.91-1.58-1.18-2.47
					c-0.32-1.08-0.51-2.21-0.58-3.34l-9.23,0.43c0.05,1.13-0.05,2.27-0.27,3.39c-0.18,0.91-0.46,1.81-0.95,2.57
					c-0.96,1.46-3.02,3.27-4.63,3.69c-1.61,0.4-5.36,3.22-5.36,3.22l0.83,10.33l32.11-1.49L1574.92,939.76z"
                      class="st14"></path>
                    <path d="M1565.74,933.5c-0.68,2.04-4.33,8-6.52,9.76c-2.49-1.99-7.14-5.53-7.52-9.11l-6.96,8.12l2.17,46.8
					l27.71-1.3l-2.32-49.92L1565.74,933.5z" class="st14"></path>
                    <path d="M1550.8,943.58c0,0,2.03,3.19,3.07,4.63c1.88-2.11,3.22-3.19,5.33-4.95c2.62,0.56,4.1,2.59,6.16,4.08
					c0.78-1.88,1.68-4.18,2.17-6.14" class="st16"></path>
                    <path d="M1567.9,991.28c-1.71,3.92-5.13,6.94-5.13,6.94c-2.04-1.2-4.35-3.95-5.89-5.88
					c-0.3-3.3,0.15-4.91,0.15-8.23c0-2.51-0.03-5.03-0.05-7.54c-0.03-6.08,0.3-12.15,0.51-18.18c0.18-5.08,0.43-8.45,1-10.03
					c0.55-1.49,1.86-2.92,2.74-0.9c0,0,1.71,13.83,2.04,17.23c0.65,6.51,2.27,12.83,3.15,19.29
					C1566.89,987.23,1567.35,988.07,1567.9,991.28z" class="st18"></path>
                    <path d="M1559.22,943.28c2.03,0.51,3.44,1.81,3.44,1.81s-0.6,1.99-1.25,3.15c-1.1-0.32-1.88-0.28-2.91,0.13
					c-0.76-0.75-1.93-2.86-1.93-2.86L1559.22,943.28z" class="st18"></path>
                    <g>
					<path d="M1566.26,922.86c1.61,0.12,3.59-1.56,3.47-3.3c-0.12-1.56-2.14-1.99-3.05-0.81"
                          class="st14"></path>
                        <path d="M1566.69,920.65c0.07-0.95,1.46-1.03,1.98-0.4" class="st16"></path>
                        <path d="M1566.7,920.55c0.38-0.45,0.98,0.18,1.05,0.58" class="st16"></path>
				</g>
                    <g>
					<path d="M1549.95,923.62c-1.59,0.27-3.72-1.21-3.77-2.97c-0.03-1.56,1.96-2.17,2.96-1.1"
                          class="st14"></path>
                        <path d="M1549.32,921.46c-0.15-0.95-1.56-0.9-2.01-0.22" class="st16"></path>
                        <path d="M1549.29,921.35c-0.42-0.42-0.96,0.27-0.98,0.68" class="st16"></path>
				</g>
                    <path d="M1566.69,912.52c-0.43-1.49-1.23-2.82-2.26-3.95c-1.69-1.84-4.05-3.1-6.49-3.49l-1.61,0.08
					c-2.41,0.6-4.63,2.08-6.14,4.07c-0.93,1.21-1.59,2.62-1.89,4.15c-0.56,2.92,0.17,5.91,0.9,8.77c0.73,2.86,1.59,5.71,3.97,7.35
					c1.43,0.98,2.91,1.68,4.95,1.58l0.48-0.02c2.27-0.1,3.45-0.93,4.78-2.04c2.21-1.86,2.81-4.78,3.25-7.69
					C1567.07,918.41,1567.52,915.37,1566.69,912.52z" class="st14"></path>
                    <path d="M1553.9,924.77c0.46-1,0.03-2.17-0.96-2.64c-1-0.46-2.17-0.03-2.64,0.96c-0.46,1-0.03,2.17,0.96,2.64
					C1552.26,926.2,1553.44,925.76,1553.9,924.77z" class="st11"></path>
                    <path d="M1562.22,924.39c-0.55-0.95-0.23-2.16,0.71-2.71c0.95-0.55,2.16-0.23,2.71,0.71
					c0.55,0.95,0.23,2.16-0.71,2.71C1563.98,925.65,1562.77,925.33,1562.22,924.39z" class="st11"></path>
                    <path d="M1559.6,917.36c2.71-1.38,5.01,0.2,5.01,0.2" class="st16"></path>
                    <path d="M1555.78,917.55c-2.82-1.11-4.98,0.66-4.98,0.66" class="st16"></path>
                    <path d="M1562.32,919.84c0.02,0.55-0.25,1.01-0.6,1.03c-0.35,0.02-0.65-0.43-0.65-1c-0.02-0.55,0.25-1.01,0.6-1.03
					C1562.01,918.84,1562.3,919.27,1562.32,919.84z"></path>
                    <path d="M1553.51,920.25c0.03,0.55,0.35,0.98,0.7,0.96c0.35-0.02,0.6-0.5,0.56-1.05c-0.03-0.55-0.35-0.98-0.7-0.96
					C1553.72,919.22,1553.47,919.69,1553.51,920.25z"></path>
                    <path d="M1557.57,918.33c0.53,1.05,0.23,2.54,0.17,3.67c-0.03,0.68-0.27,1.53,0.5,1.89"
                          class="st16"></path>
                    <path d="M1558.9,928.79c1.46-0.51,1.88-2.54,2.11-3.82c-1.74,0.53-3.87,0.8-5.66,0.48c0,0,0.53,1.73,1.1,2.47
					C1557.01,928.65,1557.95,929.12,1558.9,928.79z" class="st14"></path>
                    <path d="M1558.27,995.71c-0.63-13.66-1.44-27.53-4.48-40.66c-1.54-6.71-3.9-14.38-2.04-21.3
					c-4.95,3.64-7.65,4.91-13.38,7.45c-2.14,0.95-8.43,2.87-9.58,4.98c-1.44,2.71-1.01,7.62-1,10.61
					c0.1,11.09,1.15,16.37,0.35,26.13c-0.22,2.67-0.32,4.88,1.23,6.86c1.49,1.93,7.11,6.74,10.03,9.18c0.73,0.6,4.33,2.86,5.18,3.05
					c1.13,0.25,1.46-1.34,2.52-1.79C1550.45,998.78,1554.87,997,1558.27,995.71z" class="st15"></path>
                    <path d="M1546.3,937.35c-0.48,2.67-1.61,4.55-2.29,7.19c1.34,1.01,3,1.34,4.4,2.17c-1.48,1.16-2.96,1.89-4.13,3.37
					c2.72,11.14,7.55,21.42,11.67,32.06" class="st16"></path>
                    <path d="M1564.86,995.39c-0.63-13.66-1.11-27.54,0.68-40.91c0.91-6.82,2.54-14.68,0.05-21.4
					c5.26,3.15,8.09,4.18,14.03,6.18c2.22,0.75,8.67,2.06,9.99,4.07c1.69,2.56,1.73,7.49,1.98,10.48
					c0.93,11.06,0.38,16.4,2.09,26.05c0.46,2.64,0.76,4.83-0.58,6.94c-1.3,2.06-6.46,7.37-9.13,10.08
					c-0.66,0.66-4.03,3.25-4.88,3.52c-1.1,0.35-1.58-1.2-2.67-1.54C1572.95,997.73,1568.4,996.37,1564.86,995.39z"
                          class="st15"></path>
                    <path d="M1571.27,936.06c0.73,2.62,2.11,4.48,3.04,7.06c-1.25,1.13-2.87,1.61-4.17,2.57
					c1.58,1.01,3.12,1.61,4.43,2.97c-1.68,11.36-5.53,22.03-8.63,33" class="st16"></path>
                    <path d="M1563.6,906.39c-2.79-3.42-8.63-3.32-12.17-1.21c-4.2,2.52-6.28,10.51-2.87,14.44
					c0-2.66,2.54-4.63,4.55-6.23c0,0-1.54,1.99-2.09,3.4c3.22-0.71,8.88-0.95,11.04-3.9c-1.08,1.23-2.19,2.41-3.69,3.22
					c2.61-0.58,5.25-1.79,5.84-4.78c1.63,2.21,1.31,4.52,1.63,6.99c0.37-1.13,0.75-2.64,0.55-3.87c0.28,1.86,0.38,3.92,0.3,5.76
					c1.73-3.34,1.89-9.21-0.43-12.34C1565.91,907.44,1564.23,905.63,1563.6,906.39z" class="st15"></path>
                    <path d="M1563.68,909.74c-2.22-0.56-4.67,0.22-5.94,1.63" class="st16"></path>
                    <path d="M1563.48,908.91c-0.53-0.83-2.61-0.91-3.34-0.56" class="st16"></path>
                    <path d="M1553.29,908.5c-3.09,2.36-5.68,6.69-4.68,10.74" class="st16"></path>
                    <path d="M1564.81,909.83c1.06-0.42,1.83,1.76,1.93,2.41" class="st16"></path>
			</g>
		</g>
            <g>
			<path d="M1574.31,946.4c-3.93,1.1-9.63,0.61-13.83,0.61c-6.26,0-12.73,0.15-18.98,0.15
				c0.02-14.94-1.63-29.1-1.08-44.11c10.66-1.1,21.91-1.41,32.64-1.41c0,0,0.98,12.78,1.33,18.84
				C1574.92,929.57,1574.77,937.29,1574.31,946.4z" class="st7"></path>
		</g>
	</g>
</g>
    <g>
	<path d="M733.6,974.19c-8.98,2.89-22.03,1.63-31.63,1.63c-14.31,0-29.12,0.42-43.38,0.4
		c0.02-39.56-3.72-77.02-2.47-116.7c24.39-2.91,50.12-3.74,74.64-3.74c0,0,2.26,33.84,3.05,49.87
		C735.01,929.7,734.66,950.1,733.6,974.19z" class="st4"></path>
        <path d="M733.6,963.02c-8.98,2.89-22.03,1.63-31.63,1.63c-14.31,0-29.12,0.42-43.38,0.4" class="st7"></path>
        <path d="M656.11,875.05c24.39-2.91,50.12-3.74,74.64-3.74" class="st7"></path>
        <path d="M677.9,881.2c11.6-1.68,23.86-2.16,35.51-2.16" class="st7"></path>
        <path d="M672.7,949.74c15.97-1.05,32.72-0.53,48.64,0.53" class="st7"></path>
        <path d="M681.9,955.83c9.94-0.65,20.35-0.33,30.27,0.33" class="st7"></path>
        <g>
		<g>
			<path d="M713.91,935.16c-3.93,1.1-9.63,0.61-13.83,0.61c-6.26,0-12.73,0.15-18.98,0.15
				c0.02-14.94-1.63-29.1-1.08-44.11c10.66-1.1,21.91-1.41,32.64-1.41c0,0,0.98,12.78,1.33,18.84
				C714.52,918.33,714.37,926.05,713.91,935.16z" class="st12" id="SVGID_5_"></path>
		</g>
            <g>
			<defs>
				<path d="M713.91,935.16c-3.93,1.1-9.63,0.61-13.83,0.61c-6.26,0-12.73,0.15-18.98,0.15
					c0.02-14.94-1.63-29.1-1.08-44.11c10.66-1.1,21.91-1.41,32.64-1.41c0,0,0.98,12.78,1.33,18.84
					C714.52,918.33,714.37,926.05,713.91,935.16z" id="SVGID_9_"></path>
			</defs>
                <clipPath id="SVGID_10_">
				<use style="overflow:visible;" xlink:href="#SVGID_9_"></use>
			</clipPath>
                <g class="st19">
				<path d="M714.52,928.52c0,0-4.4-3.92-6.04-4.17c-1.64-0.25-3.17-1.44-4.25-2.82c-0.56-0.71-0.91-1.58-1.18-2.47
					c-0.32-1.08-0.51-2.21-0.58-3.34l-9.23,0.43c0.05,1.13-0.05,2.27-0.27,3.39c-0.18,0.91-0.45,1.81-0.95,2.57
					c-0.96,1.46-3.02,3.27-4.63,3.69c-1.61,0.4-5.36,3.22-5.36,3.22l0.83,10.33l32.11-1.49L714.52,928.52z"
                      class="st14"></path>
                    <path d="M705.36,922.26c-0.68,2.04-4.33,8-6.52,9.76c-2.49-1.99-7.14-5.53-7.52-9.11l-6.96,8.12l2.17,46.8
					l27.71-1.3l-2.32-49.92L705.36,922.26z" class="st14"></path>
                    <path d="M690.41,932.34c0,0,2.03,3.19,3.07,4.63c1.88-2.11,3.22-3.19,5.33-4.95c2.62,0.56,4.1,2.59,6.16,4.08
					c0.78-1.88,1.68-4.18,2.17-6.14" class="st16"></path>
                    <path d="M707.5,980.04c-1.71,3.93-5.13,6.94-5.13,6.94c-2.04-1.2-4.35-3.95-5.89-5.88
					c-0.3-3.3,0.15-4.91,0.15-8.23c0-2.51-0.03-5.03-0.05-7.54c-0.03-6.08,0.3-12.15,0.51-18.18c0.18-5.08,0.43-8.45,1-10.03
					c0.55-1.49,1.86-2.92,2.74-0.9c0,0,1.71,13.83,2.04,17.23c0.65,6.51,2.27,12.83,3.15,19.29
					C706.5,975.99,706.97,976.83,707.5,980.04z" class="st18"></path>
                    <path d="M698.83,932.04c2.03,0.51,3.44,1.79,3.44,1.79s-0.6,1.99-1.25,3.15c-1.1-0.32-1.88-0.28-2.91,0.13
					c-0.76-0.75-1.93-2.86-1.93-2.86L698.83,932.04z" class="st18"></path>
                    <g>
					<path d="M705.87,911.62c1.61,0.12,3.59-1.56,3.47-3.3c-0.12-1.56-2.14-1.99-3.05-0.81"
                          class="st14"></path>
                        <path d="M706.29,909.41c0.07-0.95,1.46-1.03,1.98-0.4" class="st16"></path>
                        <path d="M706.32,909.31c0.38-0.45,0.98,0.18,1.05,0.58" class="st16"></path>
				</g>
                    <g>
					<path d="M689.55,912.38c-1.59,0.27-3.72-1.21-3.77-2.97c-0.03-1.56,1.96-2.17,2.96-1.1"
                          class="st14"></path>
                        <path d="M688.92,910.23c-0.15-0.95-1.56-0.9-2.01-0.22" class="st16"></path>
                        <path d="M688.89,910.11c-0.42-0.42-0.96,0.27-0.98,0.68" class="st16"></path>
				</g>
                    <path d="M706.29,901.28c-0.43-1.49-1.23-2.82-2.26-3.95c-1.69-1.84-4.05-3.1-6.49-3.49l-1.61,0.08
					c-2.41,0.6-4.63,2.08-6.14,4.07c-0.93,1.21-1.59,2.62-1.89,4.15c-0.56,2.92,0.17,5.91,0.9,8.77c0.73,2.86,1.59,5.71,3.97,7.35
					c1.43,0.98,2.91,1.68,4.95,1.58l0.48-0.02c2.27-0.1,3.45-0.93,4.78-2.04c2.21-1.86,2.81-4.78,3.25-7.69
					C706.68,907.17,707.13,904.13,706.29,901.28z" class="st14"></path>
                    <path d="M693.5,913.53c0.46-1,0.03-2.17-0.96-2.64c-1-0.46-2.17-0.03-2.64,0.96c-0.46,1-0.03,2.17,0.96,2.64
					C691.87,914.96,693.05,914.52,693.5,913.53z" class="st11"></path>
                    <path d="M701.84,913.15c-0.55-0.95-0.23-2.16,0.71-2.71c0.95-0.55,2.16-0.23,2.71,0.71
					c0.55,0.95,0.23,2.16-0.71,2.71C703.6,914.41,702.38,914.09,701.84,913.15z" class="st11"></path>
                    <path d="M699.21,906.12c2.71-1.38,5.01,0.2,5.01,0.2" class="st16"></path>
                    <path d="M695.38,906.31c-2.82-1.11-4.98,0.66-4.98,0.66" class="st16"></path>
                    <path d="M701.92,908.6c0.02,0.55-0.25,1.01-0.6,1.03s-0.65-0.43-0.65-1c-0.02-0.55,0.25-1.01,0.6-1.03
					C701.62,907.6,701.9,908.03,701.92,908.6z"></path>
                    <path d="M693.1,909.01c0.03,0.55,0.35,0.98,0.7,0.96c0.35-0.02,0.6-0.5,0.56-1.05s-0.35-0.98-0.7-0.96
					C693.32,907.98,693.07,908.45,693.1,909.01z"></path>
                    <path d="M697.17,907.09c0.53,1.05,0.23,2.54,0.17,3.67c-0.03,0.68-0.27,1.53,0.5,1.89"
                          class="st16"></path>
                    <path d="M698.52,917.55c1.46-0.51,1.88-2.54,2.11-3.82c-1.74,0.53-3.87,0.8-5.66,0.48c0,0,0.53,1.73,1.1,2.47
					C696.62,917.41,697.57,917.88,698.52,917.55z" class="st14"></path>
                    <path d="M697.88,984.47c-0.63-13.66-1.44-27.53-4.48-40.66c-1.54-6.71-3.9-14.36-2.04-21.3
					c-4.95,3.64-7.65,4.91-13.38,7.45c-2.14,0.95-8.43,2.87-9.58,4.98c-1.44,2.71-1.01,7.62-1,10.61
					c0.1,11.09,1.15,16.37,0.35,26.13c-0.22,2.67-0.32,4.88,1.23,6.86c1.49,1.93,7.11,6.74,10.03,9.18c0.73,0.6,4.33,2.86,5.18,3.05
					c1.11,0.25,1.46-1.34,2.52-1.79C690.07,987.54,694.46,985.76,697.88,984.47z" class="st15"></path>
                    <path d="M685.91,926.11c-0.48,2.67-1.61,4.55-2.29,7.19c1.34,1.01,3,1.34,4.4,2.17c-1.48,1.16-2.96,1.89-4.13,3.37
					c2.72,11.14,7.55,21.42,11.67,32.06" class="st16"></path>
                    <path d="M704.48,984.15c-0.63-13.66-1.11-27.54,0.68-40.91c0.91-6.82,2.54-14.68,0.05-21.4
					c5.26,3.15,8.09,4.18,14.03,6.18c2.22,0.75,8.67,2.06,9.99,4.07c1.69,2.56,1.73,7.49,1.98,10.48
					c0.93,11.06,0.38,16.4,2.09,26.05c0.46,2.64,0.76,4.83-0.58,6.94c-1.29,2.06-6.46,7.37-9.13,10.08
					c-0.66,0.66-4.03,3.25-4.88,3.52c-1.1,0.35-1.58-1.2-2.67-1.54C712.54,986.49,708,985.13,704.48,984.15z"
                          class="st15"></path>
                    <path d="M710.88,924.82c0.73,2.62,2.11,4.48,3.04,7.06c-1.25,1.13-2.87,1.61-4.17,2.57
					c1.58,1.01,3.12,1.61,4.43,2.97c-1.68,11.36-5.53,22.03-8.63,33" class="st16"></path>
                    <path d="M703.21,895.15c-2.79-3.42-8.63-3.32-12.17-1.21c-4.2,2.52-6.28,10.51-2.87,14.44
					c0-2.66,2.54-4.63,4.55-6.23c0,0-1.54,1.99-2.09,3.4c3.22-0.71,8.88-0.95,11.04-3.9c-1.08,1.23-2.19,2.41-3.69,3.22
					c2.61-0.58,5.25-1.79,5.84-4.78c1.63,2.21,1.31,4.52,1.63,6.99c0.37-1.13,0.75-2.64,0.55-3.87c0.28,1.86,0.38,3.92,0.3,5.76
					c1.73-3.34,1.89-9.21-0.43-12.34C705.51,896.2,703.84,894.39,703.21,895.15z" class="st15"></path>
                    <path d="M703.28,898.5c-2.22-0.56-4.67,0.22-5.94,1.63" class="st16"></path>
                    <path d="M703.08,897.67c-0.53-0.83-2.61-0.91-3.34-0.56" class="st16"></path>
                    <path d="M692.9,897.26c-3.09,2.36-5.68,6.69-4.68,10.74" class="st16"></path>
                    <path d="M704.43,898.59c1.06-0.42,1.83,1.76,1.93,2.41" class="st16"></path>
			</g>
		</g>
            <g>
			<path d="M713.91,935.16c-3.93,1.1-9.63,0.61-13.83,0.61c-6.26,0-12.73,0.15-18.98,0.15
				c0.02-14.94-1.63-29.1-1.08-44.11c10.66-1.1,21.91-1.41,32.64-1.41c0,0,0.98,12.78,1.33,18.84
				C714.52,918.33,714.37,926.05,713.91,935.16z" class="st7"></path>
		</g>
	</g>
</g>
    <g>
	<g>
		<path d="M1590.25,996.76c-0.25,0-0.51,0-0.76,0c-81.23,0-162.48-0.12-243.72-0.12c-11.41,0-19.39,3.35-19.19,15.14
			c0.27,15.26,2.61,30.81,4.17,45.99c3.05,30,6.79,59.93,11.21,89.78c0.37,2.46,0.78,5.05,2.37,6.96c2.56,3.07,7.09,3.3,11.07,3.3
			c72.63-0.02,145.28-0.03,217.92-0.03c7.4,0,10.91-2.69,11.85-10.29c5.63-45.42,15.99-93.45,15.99-139.26
			c0.27-2.66,0.46-5.56-1-7.8C1598.13,997.3,1593.98,996.8,1590.25,996.76z" class="st4"></path>
	</g>
        <g>
		<path d="M1590.25,1002.38c-0.25,0-0.51,0-0.76,0c-81.23,0-162.48-0.12-243.72-0.12c-11.41,0-19.39,3.24-19.19,14.61
			c0.27,14.73,2.61,29.72,4.17,44.36c3.05,28.95,6.79,57.84,11.21,86.63c0.37,2.37,0.78,4.86,2.37,6.71
			c2.56,2.96,7.09,3.19,11.07,3.19c72.63-0.02,145.28-0.03,217.92-0.03c7.4,0,10.91-2.59,11.85-9.94
			c5.63-43.83,15.99-90.18,15.99-134.36c0.27-2.57,0.46-5.36-1-7.52C1598.13,1002.91,1593.98,1002.43,1590.25,1002.38z"
              class="st4"></path>
	</g>
        <path d="M1582.53,1169.77H1345.8c-2.64,0-4.78-2.14-4.78-4.78v-2.42c0-2.64,2.14-4.78,4.78-4.78h236.73
		c2.64,0,4.78,2.14,4.78,4.78v2.42C1587.31,1167.64,1585.17,1169.77,1582.53,1169.77z" class="st4"></path>
</g>
    <path d="M1504.5,528.86c-17.25-23.31-55.55-24.42-79.34-11.64c-28.31,15.21-44.39,66.97-23.29,93.82
	c0.86-17.45,18.05-29.62,31.74-39.38c0,0-10.69,12.62-14.78,21.68c21.28-3.67,58.54-3.49,73.6-22.16
	c-7.47,7.72-15.07,15.16-25.1,20.02c17.27-2.96,34.95-10.14,39.75-29.5c9.94,14.93,7.19,30.03,8.5,46.35
	c2.76-7.26,5.69-17.12,4.81-25.14c1.33,12.22,1.36,25.77,0.25,37.87c12.35-21.38,15.19-59.77,0.9-80.98
	C1519.26,536.46,1508.9,524.13,1504.5,528.86z" class="st6"></path>
    <path d="M1503.98,550.86c-14.44-4.35-30.61-0.05-39.48,8.87" class="st5"></path>
    <path d="M1502.94,545.43c-3.19-5.58-16.77-6.74-21.65-4.73" class="st5"></path>
    <path d="M1436.28,539.62c-20.92,14.53-39.25,42.05-34,69" class="st5"></path>
    <path d="M1511.37,551.82c7.12-2.39,11.46,12.05,11.9,16.37" class="st5"></path>
    <path d="M1098.66,639.59c-0.68-8.04,0.38-15.01-1.43-23.24c-1.94-8.82-4.8-17.95-10.74-24.9" class="st5"></path>
    <path d="M1893.18,1008.24c-33.12,6.44-77.55,10.06-109.41-3.87c-28.42-12.43-51.77-32.62-73.9-56.88
	c19.03-36.06,30.17-83.57,45.44-122.29c5-12.67,11.92-35.96,24.84-38.7c36.72-7.77,68.27-21.13,102.43-35.96
	C1878.32,775.3,1901.73,1006.57,1893.18,1008.24z" class="st6"></path>
    <path d="M1773.63,1065.14c2.46,50.98-20.32,104.64-22.2,144.39c10.91-33.74,41.8-24.19,69.83-32.36
	c47.81-13.96,70.71-79.54,68.8-126.34C1855.55,1064.72,1810.36,1058.98,1773.63,1065.14z" class="st6"></path>
    <path d="M1918.9,1103.06c2.72,25.88,16.17,54.52,38.37,69.13c24.6,16.2,87.41,23.69,105.46,48.74
	c4.15,5.76,9.8,9.03,16.85,9.1c1.71-44.31-3.25-133.6-35.71-172.21c-19.51,0.76-18.23,33.09-38.12,35.03
	c-10.59,1.03-21.43,2.91-31.96,3.77C1957.6,1097.94,1934.9,1102.86,1918.9,1103.06z" class="st6"></path>
    <path d="M2030.57,895.85c0,0-2.14,59.44,0.43,87.36c0.51,5.66,0.02,12.67-0.03,18.33c-0.05,6.51-1.08,11.26-2.24,15.44
	c-0.27,0.96-3.85,2.03-4.48,3.24c-2.37,4.58,1.36,5.45-4.18,10.31c-5.68,4.98-55.9,38-83.43,47.91
	c-2.46,14.49,5.41,33.97,14.58,50.85c0,0,122.04-39.18,135.26-44.69c19.56-8.15,19.09-29.35,19.01-48.54
	c-0.32-75.21,1.84-104.54-1.61-183.77c-1.41-32.13,2.64-60.71-32.17-74.38c-30.23-11.87-58.54-14.1-87.01-29.42
	c-36.03,51.82-37.09,142.08-52.4,202.06c-9.94,38.95-14.68,75.29-14.69,116.8c0,8.04-0.02,17.35,0.58,26.93"
          class="st6"></path>
    <path d="M2025.83,1027.62c9.08,5.61,18.13,11.24,27.18,16.9" class="st7"></path>
    <path d="M2032.44,1021.74c16.54,4.53,30.9,9.36,46.27,16.9" class="st7"></path>
    <path d="M2031.3,887.76c10.53-37.16,19.79-70.43,47.75-98.43" class="st7"></path>
    <path d="M1782.45,961.21c4.12-23.57,8.02-38.87,10.26-62.87" class="st4"></path>
    <path d="M1795.46,888.46c3.1-30.83,1.16-73.88-13.02-96.56" class="st7"></path>
    <path d="M1842.66,685.28c6.28-31.94-2.06-38.5,3.95-66.92c0.4-1.91,0.88-3.92,1.41-6.04
	c2.42-9.48,17.78-40.76,30.65-25.73c14.58-11.54,35.01,17.15,40.39,26.36c4.68,8,9.16,15.09,15.49,21.91
	c10.66,11.52,15.67,8.1,30.71,4.7c1.49,4.38-2.96,12.45-3.79,17.98c-0.93,6.21-3.09,8.58-3.4,14.99
	c-0.88,17.58-9.68,45.99-21.45,59.72c6.96-1,31.86,4.22,37.64,0c12.15-8.88,11.19-34.45,12.72-47c4.27,14.24,0.05,33.93-5.68,47
	c8.28-11.94,13.25-29.15,15.67-42.97c3.17-18.05,5.86-36.29,3.95-55.25c-2.37-23.48-10.82-49.66-29.73-65.99
	c-17.78-15.36-57.56-29.6-76.14-10.94c-10.81-7.95-34.37,9.86-41.62,17.15c-23.57,23.69-22.06,61.88-16.3,94.08
	c1,5.55,1.38,11.22,1.25,16.92" class="st6"></path>
    <g>
	<path d="M1955.57,673.36c11.77-2.71,22.25-18.86,17.58-31.01c-4.17-10.89-19.57-9.51-23.48,0.83" class="st4"></path>
        <path d="M1953.83,656.71c-1.63-6.91,8.23-10.53,13.22-7.07" class="st5"></path>
        <path d="M1953.73,655.85c1.71-4.03,7.42-0.83,8.72,1.94" class="st5"></path>
</g>
    <path d="M1890.01,573.19c23.97-12.78,41.16,29.29,50.92,42.05" class="st5"></path>
    <path d="M1890.01,567.09c3.19-3.35,10.06-3.37,14.36-3.32c11.89,0.13,19.87,8.42,27.14,17.15" class="st5"></path>
    <path d="M1955.87,636.82c-3.45-2.52-5.71-6.86-7.75-10.51" class="st5"></path>
    <path d="M1962.51,634.05c-4.67-7.32-5.33-15.89-8.85-23.79" class="st5"></path>
    <path d="M1969.7,662.84c-1.48,19.03-2.01,41.16-9.96,58.66" class="st5"></path>
    <path d="M1862.07,760.51c-4.55,10.31-8.57,19.92-11.62,30.71c7.39-0.43,16.3,7.55,23.24,9.96
	c-7.7,7.52-15.89,13.8-24.07,20.75c2.47,33.88,9.3,68.67,18.26,101.27" class="st5"></path>
    <path d="M2004.85,762.17c-0.17,14.41-1.64,28.75-1.66,43.17c-8.75,2.97-18.89,3.62-27.39,7.47
	c7.39,6.42,13.85,13.91,21.58,19.92c-11.09,30.15-18.58,60.7-28.22,91.31" class="st5"></path>
    <g>
	<path d="M2020.27,1015.08c-8.7,2.79-21.33,1.56-30.61,1.58c-13.86,0-28.19,0.4-42,0.4
		c0.02-38.28-3.6-74.56-2.39-112.96c23.61-2.82,48.51-3.62,72.25-3.62c0,0,2.19,32.76,2.96,48.28
		C2021.63,972.02,2021.3,991.76,2020.27,1015.08z" class="st4"></path>
        <path d="M2020.27,1004.28c-8.7,2.79-21.33,1.56-30.61,1.58c-13.86,0-28.19,0.4-42,0.4" class="st7"></path>
        <path d="M1945.26,919.12c23.61-2.82,48.51-3.62,72.25-3.62" class="st7"></path>
        <path d="M1966.35,925.08c11.24-1.63,23.09-2.09,34.38-2.09" class="st7"></path>
        <path d="M1961.32,991.41c15.46-1.01,31.68-0.51,47.08,0.51" class="st7"></path>
        <path d="M1970.22,997.32c9.61-0.63,19.71-0.32,29.29,0.32" class="st7"></path>
        <g>
		<g>
			<path d="M2001.21,977.3c-3.8,1.06-9.33,0.6-13.38,0.6c-6.06,0-12.32,0.15-18.36,0.15
				c0.02-14.48-1.58-28.17-1.05-42.7c10.33-1.06,21.22-1.36,31.59-1.36c0,0,0.96,12.39,1.29,18.25
				C2001.81,961.01,2001.66,968.48,2001.21,977.3z" class="st12" id="SVGID_7_"></path>
		</g>
            <g>
			<defs>
				<path d="M2001.21,977.3c-3.8,1.06-9.33,0.6-13.38,0.6c-6.06,0-12.32,0.15-18.36,0.15
					c0.02-14.48-1.58-28.17-1.05-42.7c10.33-1.06,21.22-1.36,31.59-1.36c0,0,0.96,12.39,1.29,18.25
					C2001.81,961.01,2001.66,968.48,2001.21,977.3z" id="SVGID_11_"></path>
			</defs>
                <clipPath id="SVGID_12_">
				<use style="overflow:visible;" xlink:href="#SVGID_11_"></use>
			</clipPath>
                <g class="st20">
				<path d="M2000.12,966.39c0,0-3.65-1.94-5.11-2.14c-1.46-0.2-2.97-0.68-3.97-1.86c-0.51-0.61-0.85-1.38-1.1-2.16
					c-0.3-0.95-0.5-1.94-0.58-2.94l-8.14,0.55c0.07,1,0,2.01-0.17,2.99c-0.15,0.8-0.37,1.61-0.8,2.29
					c-0.81,1.31-2.26,1.99-3.67,2.39s-4.78,2.81-4.78,2.81l0.7,10.18l28.29-1.93L2000.12,966.39z"
                      class="st14"></path>
                    <path d="M2002.91,994.25l-1.86-27.24c-6.99,4.8-20.24,5.23-27.81,2.34l1.23,24.55L2002.91,994.25z"
                          class="st15"></path>
                    <g>
					<path d="M1992.18,953.08c1.43,0.07,3.14-1.44,3.01-2.97c-0.13-1.38-1.93-1.71-2.71-0.66"
                          class="st14"></path>
                        <path d="M1992.51,951.13c0.03-0.85,1.28-0.93,1.73-0.38" class="st16"></path>
                        <path d="M1992.53,951.03c0.32-0.4,0.88,0.15,0.93,0.5" class="st16"></path>
				</g>
                    <g>
					<path d="M1977.82,954.05c-1.41,0.27-3.3-1-3.37-2.54c-0.07-1.38,1.68-1.96,2.59-1.01"
                          class="st14"></path>
                        <path d="M1977.22,952.16c-0.15-0.83-1.39-0.76-1.78-0.15" class="st16"></path>
                        <path d="M1977.19,952.08c-0.38-0.37-0.85,0.27-0.86,0.61" class="st16"></path>
				</g>
                    <path d="M1992.48,944.48c-0.42-1.31-1.13-2.47-2.08-3.44c-1.53-1.59-3.64-2.67-5.79-2.96l-1.43,0.1
					c-2.11,0.56-4.03,1.91-5.35,3.7c-0.8,1.1-1.36,2.34-1.58,3.69c-0.45,2.59,0.27,5.21,0.95,7.72c0.7,2.51,1.51,5.01,3.64,6.41
					c1.28,0.85,2.61,1.43,4.4,1.31l0.43-0.03c2.01-0.13,3.04-0.88,4.18-1.89c1.91-1.68,2.39-4.27,2.74-6.84
					C1992.93,949.67,1993.26,946.98,1992.48,944.48z" class="st14"></path>
                    <path d="M1981.42,955.53c0.38-0.88-0.02-1.91-0.9-2.31c-0.88-0.38-1.91,0.02-2.31,0.9
					c-0.38,0.88,0.02,1.91,0.9,2.31C1980.01,956.83,1981.04,956.41,1981.42,955.53z" class="st11"></path>
                    <path d="M1988.76,955.03c-0.5-0.83-0.25-1.89,0.58-2.41c0.83-0.5,1.89-0.25,2.41,0.58
					c0.5,0.83,0.25,1.89-0.58,2.41C1990.34,956.11,1989.26,955.86,1988.76,955.03z" class="st11"></path>
                    <path d="M1986.32,948.89c2.36-1.26,4.43,0.08,4.43,0.08" class="st16"></path>
                    <path d="M1982.95,949.12c-2.51-0.93-4.38,0.68-4.38,0.68" class="st16"></path>
                    <path d="M1988.76,951.02c0.02,0.48-0.2,0.9-0.51,0.91c-0.3,0.02-0.56-0.37-0.6-0.86c-0.02-0.48,0.2-0.9,0.51-0.91
					C1988.46,950.14,1988.75,950.53,1988.76,951.02z"></path>
                    <path d="M1980.99,951.55c0.05,0.48,0.33,0.86,0.63,0.83c0.3-0.03,0.51-0.45,0.48-0.93c-0.05-0.48-0.33-0.86-0.63-0.83
					C1981.16,950.63,1980.96,951.07,1980.99,951.55z"></path>
                    <path d="M1984.55,949.79c0.48,0.91,0.25,2.24,0.22,3.24c-0.02,0.6-0.22,1.36,0.46,1.66"
                          class="st16"></path>
                    <path d="M1985.92,958.97c1.28-0.48,1.61-2.27,1.79-3.4c-1.53,0.5-3.39,0.78-4.98,0.53c0,0,0.5,1.51,1.01,2.16
					C1984.25,958.89,1985.09,959.28,1985.92,958.97z" class="st14"></path>
                    <path d="M1966.58,1001.12c1.06-1.29,1.76-2.92,3.47-3.45c1.61-0.5,4.05-0.58,5.69-0.22c0.73,2.49,2.04,4,2.22,6.69
					c-1.29,0.63-1.86,0.81-3.55,1.83c-2.17,1.28-4.48,2.17-6.81,0.96c-2.03-1.06-2.64-2.67-2.72-5.16
					c-0.28-8.53,0.1-13.35-1.48-21.63c-0.48-2.56-2.34-8.27,0.65-9.71c5.94-2.87,11.41-3.57,16.29-8.22c1,3.54,1.21,7.3,1.73,10.94
					c0.42,2.94,0.95,5.86,1.44,8.78c0.83,4.85,2.13,9.66,3.14,14.53c1.11,5.4,1.86,10.11,0.65,15.67c-0.4,1.79-0.68,3.19-2.69,4.07
					c-0.98,0.43-2.14,0.33-3.2,0.35c-4.13,0.1-8,0.18-12.1-0.93c1.11-2.31,1.84-8.25,1.84-8.25"
                          class="st14"></path>
                    <path d="M1977.49,964.76c-0.43,2.47-0.8,4.96-1.21,7.45c1.43,0.91,2.56,1.81,4.12,2.49
					c-0.83,1.33-2.52,2.74-3.69,3.8c1.58,3.44,2.76,7.11,5.03,10.18" class="st16"></path>
                    <path d="M2009.55,998.2c-1.23-1.15-2.14-2.66-3.9-2.96c-1.68-0.28-4.08-0.02-5.66,0.55
					c-0.38,2.56-1.48,4.23-1.3,6.92c1.38,0.45,1.96,0.55,3.77,1.33c2.32,0.98,4.73,1.54,6.87,0.03c1.86-1.33,2.26-3,2.01-5.48
					c-0.88-8.5-1.91-13.22-1.48-21.63c0.13-2.61,1.2-8.5-1.96-9.53c-6.28-2.04-11.79-1.99-17.25-5.93
					c-0.51,3.64-0.22,7.39-0.23,11.07c-0.02,2.97-0.15,5.94-0.25,8.9c-0.17,4.91-0.8,9.86-1.13,14.83
					c-0.37,5.5-0.46,10.28,1.49,15.62c0.63,1.73,1.11,3.05,3.2,3.67c1.03,0.3,2.16,0.03,3.22-0.08c4.12-0.46,7.95-0.96,11.85-2.61
					c-1.41-2.13-2.44-7.82-2.44-7.82" class="st14"></path>
                    <path d="M1993.83,963.67c0.76,2.41,1.46,4.81,2.21,7.22c-1.28,1.1-2.29,2.14-3.74,3.02c1,1.2,2.87,2.37,4.17,3.27
					c-1.1,3.62-1.78,7.42-3.6,10.77" class="st16"></path>
                    <path d="M1992.88,949.57c-0.3-1.98-3.02-2.16-4.58-2.86c-1.31-0.58-2.71-1.01-3.98-1.64
					c-1.34-0.66-2.27-1.69-3.49-2.54c-1.13,0.76-2.09,2.44-2.81,3.6c-0.85,1.36-2.01,2.99-1.39,4.58c-0.76-2.16-1.51-3.95-1.08-6.31
					c0.46-2.51,1.54-4.32,4.02-5.35c1.88-2.32,5.38-1.99,7.17-1.58c2.41,0.55,4.83,2.16,5.83,4.47
					C1993.49,944.21,1994.04,947.25,1992.88,949.57" class="st15"></path>
                    <path d="M1981.16,940.97c1.23-0.18,2.39,0.85,3.27,1.53c1.1,0.83,3.22,2.11,4.6,2.46"
                          class="st16"></path>
                    <path d="M1980.89,940.21c2.16-1.46,4.25,1.81,6.08,2.16" class="st16"></path>
                    <path d="M1979.96,941.39c-1.29-0.46-2.09,1.83-2.39,2.62" class="st16"></path>
                    <path d="M1993.24,948.69c-0.17-1.08-0.08-2.01-0.4-3.1c-0.35-1.16-0.81-2.36-1.68-3.24"
                          class="st16"></path>
			</g>
		</g>
            <g>
			<path d="M2001.21,977.3c-3.8,1.06-9.33,0.6-13.38,0.6c-6.06,0-12.32,0.15-18.36,0.15
				c0.02-14.48-1.58-28.17-1.05-42.7c10.33-1.06,21.22-1.36,31.59-1.36c0,0,0.96,12.39,1.29,18.25
				C2001.81,961.01,2001.66,968.48,2001.21,977.3z" class="st7"></path>
		</g>
	</g>
</g>
    <g>
	<path d="M1776.57,934.75L1931.5,817.5c4.03-3.05,9.88-1.31,11.57,3.45l57.44,161.26c1.13,3.19-0.02,6.74-2.79,8.67
		l-162.05,112.15l-151.76-53.69c-2.03-0.71-3.65-2.27-4.45-4.27l-63.93-159.33c-2.44-6.08,3.55-12.14,9.66-9.78L1776.57,934.75z"
          class="st8"></path>
        <line y2="1097.98" x2="1831.52" y1="938.17" x1="1775.41" class="st7"></line>
        <line y2="1097.99" x2="1836.7" y1="937" x1="1780.17" class="st7"></line>
        <g>
		<path d="M1924.94,1088.63c-5.74-1.28-11.89-7.07-15.06-11.75c-2.11-3.1-11.51-15.79-14.54-17.42
			c-4.91-2.62-19.16-1.33-25.68-1.33c-16.69-0.02-36.57,9.86-48.06,22.01c5.66,7.89,17.43-1,24.37-3.25
			c9.38-3.04,19.91-5.45,29.75-3.34c-6.43,0.27-15.01,0.02-20.95,2.57c-5.93,2.56-12.5,6.23-17.61,10.28
			c-2.91,2.31-5.28,5.2-7.99,7.69c-2.03,1.88-9.11,8.63-7.74,11.74c3.09,7.04,17.1-5.23,20.29-7.11
			c10.54-6.21,20.27-10.76,32.91-11.24c-4.85,1.25-10.96,2.27-15.42,4.76c-4.78,2.67-10.53,8.2-14.33,12.14
			c-2.51,2.59-4.76,12.6-2.96,15.79c2.54,4.47,9.31-5.26,11.67-7.44c6.97-6.43,14.1-8.63,22.88-9.65c2.09-0.35,4.18-0.53,6.23-0.55
			c-2.17,0.15-4.23,0.32-6.23,0.55c-7.97,1.33-15.97,5.06-21.25,10.94c-2.69,2.99-6.26,9.01,0.48,8.35
			c4.32-0.43,8.47-3.37,12.47-4.81c8.05-2.91,15.21-1.61,21.86,3.72c10.51,8.4,19.74,9.45,33.24,6.43
			c5.66-1.26,10.06-4.07,15.97-4.78c2.42-0.3,5.15-0.73,8.04-1.26c-5.89-11.99-10.54-24.65-11.04-35.59
			C1930.7,1088.03,1926.69,1089.03,1924.94,1088.63z" class="st4"></path>
            <path d="M1876.48,1103.14c1.99-0.23,4.05-0.4,6.23-0.55C1880.67,1102.61,1878.57,1102.79,1876.48,1103.14z"
                  class="st4"></path>
	</g>
        <path d="M1891.16,1068.81c2.16-1.08,3.37,1.25,4.78,2.57" class="st5"></path>
        <path d="M1889.7,1082.77c2.61,0.2,4.71,1.64,6.24,3.67" class="st5"></path>
        <path d="M1888.95,1096.72c1.98-0.15,3.85,1,4.78,2.57" class="st5"></path>
        <path d="M1888.22,1111.04c1.46,0.1,2.57,0.9,3.3,2.21" class="st5"></path>
        <path d="M1646.56,978.82c8.02,3.82,10.46,10.08,19.18,12.58c2.36,0.68,13,3.82,14.21,0.65
		c1.38-3.6-12.85-11.87-14.74-13.15c-5.33-3.6-8.78-9.25-13.86-12.95c-5.91-4.32-8.35,0.25-11.75,4.43
		c-1.64,2.03-4.05,1.11-6.26,2.31c-2.89,1.56-3.39,3.14-4.03,6.24c-0.56,2.67-0.51,4.76-2.56,6.87c-2.21,2.27-4.57,2.31-5.43,5.88
		c-0.66,2.72,0.88,5.16-0.27,7.72c-0.95,2.13-4.62,3.5-5,5.86c-1.16,7.26,15.66,18.26,20.67,21.32c6.03,3.67,21.57,6.74,26.83-0.15
		c5.25,2.29,14.06,3.74,13.05-2.51c-0.33-2.04-3.22-4.73-4.4-6.42c3.47,1.49,10.18,2.17,9.63-3.05c-0.46-4.32-4.42-7.3-7.35-9.89
		c-3.34-2.96-6.81-5.59-10.29-8.45C1657.7,990.83,1652.09,985.22,1646.56,978.82z" class="st4"></path>
        <path d="M1667.86,1028.03c-14.21-4.78-27.92-14.59-39.3-24.24" class="st5"></path>
        <path d="M1674.83,1018.7c-5.33-2.06-9.86-6.13-14.05-8.95c-8.77-5.93-15.69-13.73-23.43-21.02" class="st5"></path>
</g>
</svg>
