<?xml version="1.0" standalone="no"?><!DOCTYPE svg PUBLIC "-//W3C//DTD SVG 1.1//EN" "http://www.w3.org/Graphics/SVG/1.1/DTD/svg11.dtd"><svg t="1654150992473" class="icon" viewBox="0 0 1024 1024" version="1.1" xmlns="http://www.w3.org/2000/svg" p-id="3302" xmlns:xlink="http://www.w3.org/1999/xlink" width="200" height="200"><defs><style type="text/css">@font-face { font-family: feedback-iconfont; src: url("//at.alicdn.com/t/font_1031158_u69w8yhxdu.woff2?t=1630033759944") format("woff2"), url("//at.alicdn.com/t/font_1031158_u69w8yhxdu.woff?t=1630033759944") format("woff"), url("//at.alicdn.com/t/font_1031158_u69w8yhxdu.ttf?t=1630033759944") format("truetype"); }
</style></defs><path d="M786.501 833.386l-5.686-37.883 51.059-98.45-14.579-27.326 44.128-104.773-12.042-21.509 45.723-113.362c-1.867-4.875-9.241-10.05-17.008-10.05l-1.142-0.038L582.84 400.72l-0.445-15.895c-2.138-76.36-11.697-185.078-69.781-247.327-24.309-26.052-48.021-39.823-68.574-39.823-12.801 0-22.073 5.273-27.115 9.098 0.184 35.379-0.849 178.84-27.882 277.572l-2.187 8.739L332 412.947V900h398.557c9.314 0 23.073-12.135 36.804-32.623 9.055-13.51 15.932-27.183 19.14-33.991z" fill="#FFC0C0" p-id="3303"></path><path d="M930 432.35c0-12.889-6.075-25.474-17.083-34.525-9.659-7.942-22.052-12.554-34.306-12.708l-261.915-17.17c-3.319-80.713-16.592-187.838-78.58-254.272-31.527-33.788-63.174-50.92-94.091-50.92-36.239 0-57.092 24.122-57.963 25.149l-4.245 5.013 0.113 6.571c0.027 1.637 2.37 160.553-24.291 266.94l-32.255 11.793c-8.37-14.53-24.362-24.221-42.685-24.221h-138.81C116.932 354 95 374.988 95 401.175v511.228C95 938.404 116.932 960 143.889 960h138.81c18.426 0 34.498-10 42.829-25h405.029c22.338 0 44.579-16.308 66.108-48.584 14.355-21.52 23.534-42.752 23.918-43.646l1.958-4.55-5.511-36.704 54.302-104.697-15.401-28.862 44.298-105.173-12.442-21.796L930 435.738v-3.388zM730.557 900H332V412.947l54.856-19.861 2.29-8.739c27.033-98.732 28.015-242.193 27.83-277.572 5.042-3.826 14.288-9.098 27.089-9.098 20.553 0 44.252 13.77 68.561 39.823 58.084 62.249 67.636 170.967 69.774 247.327l0.442 15.895 294.114 19.275 1.141 0.038c7.767 0 15.14 5.175 17.007 10.05l-45.723 113.362 12.041 21.509-44.128 104.773 14.579 27.326-51.059 98.45 5.686 37.883c-3.208 6.808-10.085 20.482-19.14 33.991C753.63 887.865 739.871 900 730.557 900zM130 912.404V401.175c0-6.814 6.317-12.175 13.889-12.175h138.81c7.572 0 14.301 5.361 14.301 12.175v511.228c0 6.746-6.599 12.596-14.301 12.596h-138.81C136.187 925 130 919.149 130 912.404z" fill="" p-id="3304"></path><path d="M282.699 925c7.702 0 14.301-5.851 14.301-12.596V401.175c0-6.814-6.73-12.175-14.301-12.175h-138.81c-7.572 0-13.889 5.361-13.889 12.175v511.228c0 6.746 6.187 12.596 13.889 12.596h138.81z" fill="#E0344C" p-id="3305"></path></svg>